<svg xmlns="http://www.w3.org/2000/svg" xmlns:xlink="http://www.w3.org/1999/xlink" width="80" zoomAndPan="magnify" viewBox="0 0 60 30.000001" height="40" preserveAspectRatio="xMidYMid meet" version="1.0"><defs><g/><clipPath id="id1"><path d="M 41.320312 10.722656 L 55 10.722656 L 55 27.324219 L 41.320312 27.324219 Z M 41.320312 10.722656 " clip-rule="nonzero"/></clipPath></defs><g clip-path="url(#id1)"><path fill="#03989e" d="M 43.367188 22.933594 C 43.367188 22.933594 41.335938 18.238281 49.664062 15.179688 C 54.414062 13.4375 54.316406 10.726562 54.316406 10.726562 C 54.316406 10.726562 55.285156 22.933594 47.144531 24.09375 C 47.144531 24.09375 44.9375 24.585938 43.789062 23.796875 C 43.789062 23.796875 42.644531 26.144531 42.796875 27.273438 L 41.734375 27.324219 C 41.734375 27.324219 43.515625 22.648438 44.339844 22.101562 Z M 43.367188 22.933594 " fill-opacity="1" fill-rule="nonzero"/></g><g fill="#000000" fill-opacity="1"><g transform="translate(0.967741, 14.921145)"><g><path d="M 2.53125 0 L 1.140625 0 L 1.140625 -10.5625 L 2.53125 -10.5625 L 2.53125 -5.671875 L 6.875 -10.5625 L 8.6875 -10.5625 L 3.75 -5.21875 L 8.6875 0 L 6.84375 0 L 2.53125 -4.734375 Z M 2.53125 0 "/></g></g></g><g fill="#000000" fill-opacity="1"><g transform="translate(10.086754, 14.921145)"><g><path d="M 6.84375 -1.90625 C 7.394531 -2.476562 7.671875 -3.234375 7.671875 -4.171875 C 7.671875 -5.117188 7.394531 -5.878906 6.84375 -6.453125 C 6.289062 -7.023438 5.625 -7.3125 4.84375 -7.3125 C 4.0625 -7.3125 3.394531 -7.035156 2.84375 -6.484375 C 2.289062 -5.929688 2.015625 -5.179688 2.015625 -4.234375 C 2.015625 -3.296875 2.289062 -2.53125 2.84375 -1.9375 C 3.40625 -1.34375 4.070312 -1.046875 4.84375 -1.046875 C 5.625 -1.046875 6.289062 -1.332031 6.84375 -1.90625 Z M 4.59375 0.140625 C 3.445312 0.140625 2.492188 -0.265625 1.734375 -1.078125 C 0.972656 -1.898438 0.59375 -2.945312 0.59375 -4.21875 C 0.59375 -5.5 0.96875 -6.535156 1.71875 -7.328125 C 2.476562 -8.117188 3.4375 -8.515625 4.59375 -8.515625 C 5.300781 -8.515625 5.921875 -8.34375 6.453125 -8 C 6.992188 -7.664062 7.398438 -7.226562 7.671875 -6.6875 L 7.671875 -8.375 L 9.078125 -8.375 L 9.078125 0 L 7.671875 0 L 7.671875 -1.703125 C 7.398438 -1.160156 6.992188 -0.71875 6.453125 -0.375 C 5.921875 -0.03125 5.300781 0.140625 4.59375 0.140625 Z M 4.59375 0.140625 "/></g></g></g><g fill="#000000" fill-opacity="1"><g transform="translate(20.303708, 14.921145)"><g><path d="M 2.53125 -8.375 L 2.53125 -6.953125 C 3.03125 -7.992188 3.878906 -8.515625 5.078125 -8.515625 L 5.078125 -7.0625 L 4.71875 -7.0625 C 4 -7.0625 3.453125 -6.875 3.078125 -6.5 C 2.710938 -6.132812 2.53125 -5.492188 2.53125 -4.578125 L 2.53125 0 L 1.140625 0 L 1.140625 -8.375 Z M 2.53125 -8.375 "/></g></g></g><g fill="#000000" fill-opacity="1"><g transform="translate(25.915411, 14.921145)"><g><path d="M 4.65625 0.140625 C 3.457031 0.140625 2.476562 -0.253906 1.71875 -1.046875 C 0.96875 -1.835938 0.59375 -2.882812 0.59375 -4.1875 C 0.59375 -5.488281 0.972656 -6.535156 1.734375 -7.328125 C 2.492188 -8.117188 3.484375 -8.515625 4.703125 -8.515625 C 5.921875 -8.515625 6.894531 -8.140625 7.625 -7.390625 C 8.363281 -6.640625 8.734375 -5.6875 8.734375 -4.53125 C 8.734375 -4.238281 8.710938 -3.960938 8.671875 -3.703125 L 2.015625 -3.703125 C 2.054688 -2.867188 2.316406 -2.207031 2.796875 -1.71875 C 3.273438 -1.238281 3.894531 -1 4.65625 -1 C 5.21875 -1 5.691406 -1.125 6.078125 -1.375 C 6.472656 -1.632812 6.765625 -1.972656 6.953125 -2.390625 L 8.453125 -2.390625 C 8.179688 -1.660156 7.722656 -1.054688 7.078125 -0.578125 C 6.429688 -0.0976562 5.625 0.140625 4.65625 0.140625 Z M 7.296875 -4.71875 C 7.285156 -5.519531 7.03125 -6.160156 6.53125 -6.640625 C 6.03125 -7.117188 5.410156 -7.359375 4.671875 -7.359375 C 3.929688 -7.359375 3.316406 -7.125 2.828125 -6.65625 C 2.347656 -6.1875 2.082031 -5.539062 2.03125 -4.71875 Z M 7.296875 -4.71875 "/></g></g></g><g fill="#000000" fill-opacity="1"><g transform="translate(35.232669, 14.921145)"><g><path d="M 2.53125 -8.375 L 2.53125 -7.015625 C 3.101562 -8.015625 4.015625 -8.515625 5.265625 -8.515625 C 6.191406 -8.515625 6.960938 -8.207031 7.578125 -7.59375 C 8.203125 -6.976562 8.515625 -6.097656 8.515625 -4.953125 L 8.515625 0 L 7.140625 0 L 7.140625 -4.734375 C 7.140625 -5.578125 6.9375 -6.21875 6.53125 -6.65625 C 6.125 -7.09375 5.5625 -7.3125 4.84375 -7.3125 C 4.125 -7.3125 3.554688 -7.09375 3.140625 -6.65625 C 2.734375 -6.21875 2.53125 -5.578125 2.53125 -4.734375 L 2.53125 0 L 1.140625 0 L 1.140625 -8.375 Z M 2.53125 -8.375 "/></g></g></g></svg>