<svg xmlns="http://www.w3.org/2000/svg" xmlns:xlink="http://www.w3.org/1999/xlink" width="80" zoomAndPan="magnify" viewBox="0 0 60 30.000001" height="40" preserveAspectRatio="xMidYMid meet" version="1.0"><defs><g/></defs><g fill="#000000" fill-opacity="1"><g transform="translate(8.807275, 18.508066)"><g><path d="M 2.40625 0 L 1.09375 0 L 1.09375 -10.0625 L 2.40625 -10.0625 L 2.40625 -5.40625 L 6.546875 -10.0625 L 8.28125 -10.0625 L 3.578125 -4.96875 L 8.28125 0 L 6.515625 0 L 2.40625 -4.5 Z M 2.40625 0 "/></g></g></g><g fill="#000000" fill-opacity="1"><g transform="translate(17.487914, 18.508066)"><g><path d="M 6.5 -1.8125 C 7.03125 -2.351562 7.296875 -3.070312 7.296875 -3.96875 C 7.296875 -4.875 7.03125 -5.597656 6.5 -6.140625 C 5.976562 -6.679688 5.347656 -6.953125 4.609375 -6.953125 C 3.867188 -6.953125 3.234375 -6.691406 2.703125 -6.171875 C 2.179688 -5.648438 1.921875 -4.9375 1.921875 -4.03125 C 1.921875 -3.132812 2.1875 -2.40625 2.71875 -1.84375 C 3.25 -1.28125 3.878906 -1 4.609375 -1 C 5.347656 -1 5.976562 -1.269531 6.5 -1.8125 Z M 4.375 0.125 C 3.289062 0.125 2.382812 -0.257812 1.65625 -1.03125 C 0.925781 -1.8125 0.5625 -2.804688 0.5625 -4.015625 C 0.5625 -5.234375 0.921875 -6.21875 1.640625 -6.96875 C 2.367188 -7.71875 3.28125 -8.09375 4.375 -8.09375 C 5.050781 -8.09375 5.640625 -7.929688 6.140625 -7.609375 C 6.648438 -7.296875 7.035156 -6.882812 7.296875 -6.375 L 7.296875 -7.96875 L 8.640625 -7.96875 L 8.640625 0 L 7.296875 0 L 7.296875 -1.625 C 7.035156 -1.101562 6.648438 -0.679688 6.140625 -0.359375 C 5.640625 -0.0351562 5.050781 0.125 4.375 0.125 Z M 4.375 0.125 "/></g></g></g><g fill="#000000" fill-opacity="1"><g transform="translate(27.213716, 18.508066)"><g><path d="M 2.40625 -7.96875 L 2.40625 -6.625 C 2.882812 -7.601562 3.691406 -8.09375 4.828125 -8.09375 L 4.828125 -6.71875 L 4.484375 -6.71875 C 3.804688 -6.71875 3.289062 -6.539062 2.9375 -6.1875 C 2.582031 -5.832031 2.40625 -5.222656 2.40625 -4.359375 L 2.40625 0 L 1.09375 0 L 1.09375 -7.96875 Z M 2.40625 -7.96875 "/></g></g></g><g fill="#000000" fill-opacity="1"><g transform="translate(32.555652, 18.508066)"><g><path d="M 4.421875 0.125 C 3.285156 0.125 2.359375 -0.25 1.640625 -1 C 0.921875 -1.757812 0.5625 -2.753906 0.5625 -3.984375 C 0.5625 -5.222656 0.925781 -6.21875 1.65625 -6.96875 C 2.382812 -7.71875 3.328125 -8.09375 4.484375 -8.09375 C 5.640625 -8.09375 6.566406 -7.738281 7.265625 -7.03125 C 7.960938 -6.320312 8.3125 -5.414062 8.3125 -4.3125 C 8.3125 -4.03125 8.296875 -3.769531 8.265625 -3.53125 L 1.921875 -3.53125 C 1.953125 -2.738281 2.195312 -2.109375 2.65625 -1.640625 C 3.125 -1.179688 3.710938 -0.953125 4.421875 -0.953125 C 4.960938 -0.953125 5.421875 -1.070312 5.796875 -1.3125 C 6.171875 -1.5625 6.445312 -1.882812 6.625 -2.28125 L 8.046875 -2.28125 C 7.796875 -1.582031 7.363281 -1.003906 6.75 -0.546875 C 6.132812 -0.0976562 5.359375 0.125 4.421875 0.125 Z M 6.9375 -4.484375 C 6.925781 -5.242188 6.679688 -5.851562 6.203125 -6.3125 C 5.734375 -6.78125 5.144531 -7.015625 4.4375 -7.015625 C 3.738281 -7.015625 3.15625 -6.785156 2.6875 -6.328125 C 2.226562 -5.878906 1.976562 -5.265625 1.9375 -4.484375 Z M 6.9375 -4.484375 "/></g></g></g><g fill="#000000" fill-opacity="1"><g transform="translate(41.424997, 18.508066)"><g><path d="M 2.40625 -7.96875 L 2.40625 -6.671875 C 2.945312 -7.617188 3.816406 -8.09375 5.015625 -8.09375 C 5.890625 -8.09375 6.617188 -7.800781 7.203125 -7.21875 C 7.796875 -6.632812 8.09375 -5.800781 8.09375 -4.71875 L 8.09375 0 L 6.796875 0 L 6.796875 -4.5 C 6.796875 -5.300781 6.597656 -5.910156 6.203125 -6.328125 C 5.816406 -6.742188 5.28125 -6.953125 4.59375 -6.953125 C 3.914062 -6.953125 3.378906 -6.742188 2.984375 -6.328125 C 2.597656 -5.910156 2.40625 -5.300781 2.40625 -4.5 L 2.40625 0 L 1.09375 0 L 1.09375 -7.96875 Z M 2.40625 -7.96875 "/></g></g></g><g fill="#03989e" fill-opacity="1"><g transform="translate(-0.0488007, 20.637099)"><g><path d="M 3.71875 -6.015625 L 7.703125 -2.234375 L 5.8125 -2.234375 L 1.828125 -6.015625 L 5.8125 -9.796875 L 7.703125 -9.796875 Z M 3.71875 -6.015625 "/></g></g></g><g fill="#03989e" fill-opacity="1"><g transform="translate(49.160873, 20.637099)"><g><path d="M 2.171875 -2.234375 L 6.15625 -6.015625 L 2.171875 -9.796875 L 4.046875 -9.796875 L 8.03125 -6.015625 L 4.046875 -2.234375 Z M 2.171875 -2.234375 "/></g></g></g></svg>