<svg xmlns="http://www.w3.org/2000/svg" xmlns:xlink="http://www.w3.org/1999/xlink" width="220" zoomAndPan="magnify" viewBox="0 0 165 299.999988" height="400" preserveAspectRatio="xMidYMid meet" version="1.0"><defs><clipPath id="id1"><path d="M 105 67.808594 L 126 67.808594 L 126 90 L 105 90 Z M 105 67.808594 " clip-rule="nonzero"/></clipPath></defs><path fill="#f25e0d" d="M 131.449219 180.28125 L 144.21875 225.851562 C 144.480469 226.675781 144.023438 227.554688 143.199219 227.816406 C 142.375 228.078125 141.492188 227.621094 141.234375 226.796875 L 125.476562 182.167969 C 124.957031 180.519531 125.871094 178.761719 127.519531 178.242188 C 129.167969 177.71875 130.929688 178.636719 131.449219 180.28125 " fill-opacity="1" fill-rule="evenodd"/><path fill="#f25e0d" d="M 103.394531 180.277344 L 90.625 225.847656 C 90.363281 226.675781 90.820312 227.554688 91.644531 227.8125 C 92.46875 228.074219 93.351562 227.617188 93.613281 226.792969 L 109.367188 182.167969 C 109.890625 180.519531 108.972656 178.757812 107.324219 178.238281 C 105.675781 177.71875 103.914062 178.632812 103.394531 180.277344 " fill-opacity="1" fill-rule="evenodd"/><path fill="#000000" d="M 137.433594 184.183594 C 148.171875 180 147.613281 161.113281 147.519531 153.476562 C 147.449219 147.753906 141.265625 126.707031 138.875 121.578125 C 130.195312 102.984375 118.355469 104.050781 115.5 104.179688 C 102.089844 104.773438 98.257812 113.410156 92.738281 128.367188 C 85.75 147.308594 75.003906 170.332031 95.199219 183.351562 C 100.621094 186.847656 117.457031 191.957031 137.433594 184.183594 " fill-opacity="1" fill-rule="evenodd"/><path fill="#fdb58e" d="M 78.757812 211.878906 C 78.757812 211.878906 79.777344 218.957031 79.957031 220.625 C 80 221.046875 79.894531 221.722656 79.820312 221.890625 C 79.300781 223.140625 80.039062 226.113281 80.039062 226.113281 L 87.164062 226.371094 L 88.75 223.761719 C 88.75 223.761719 88.679688 223.175781 88.007812 221.429688 C 87.175781 219.261719 86.234375 211.101562 86.234375 211.101562 L 78.757812 211.878906 " fill-opacity="1" fill-rule="evenodd"/><path fill="#000000" d="M 88.273438 222.136719 C 87.832031 222.285156 86.472656 224.703125 83.625 224.367188 C 81.101562 224.0625 80.46875 221.722656 79.875 221.644531 C 78.527344 221.464844 76.71875 223.515625 72.621094 225.609375 C 70.542969 226.667969 64.863281 227.179688 65.320312 229.660156 C 65.671875 231.5625 85.03125 231.492188 89.066406 230.738281 C 90.9375 230.390625 90.070312 226.746094 89.550781 225.148438 C 89.109375 223.78125 88.949219 221.90625 88.273438 222.136719 " fill-opacity="1" fill-rule="evenodd"/><path fill="#fdb58e" d="M 39.347656 206.832031 C 39.347656 206.832031 36.742188 213.492188 36.074219 215.027344 C 35.902344 215.421875 35.476562 215.953125 35.328125 216.066406 C 34.257812 216.894531 33.433594 219.84375 33.433594 219.84375 L 39.5 223.582031 L 42.171875 222.09375 C 42.171875 222.09375 42.402344 221.546875 42.675781 219.699219 C 43.023438 217.402344 46.234375 209.839844 46.234375 209.839844 L 39.347656 206.832031 " fill-opacity="1" fill-rule="evenodd"/><path fill="#000000" d="M 42.554688 220.445312 C 42.101562 220.359375 39.722656 221.792969 37.417969 220.09375 C 35.367188 218.585938 35.972656 216.238281 35.5 215.878906 C 34.414062 215.058594 31.828125 215.949219 27.226562 215.746094 C 24.898438 215.644531 19.707031 213.289062 18.878906 215.671875 C 18.242188 217.5 35.117188 226.980469 39.003906 228.316406 C 40.800781 228.9375 41.84375 225.339844 42.183594 223.691406 C 42.472656 222.285156 43.261719 220.578125 42.554688 220.445312 " fill-opacity="1" fill-rule="evenodd"/><path fill="#da4d00" d="M 116.695312 165.664062 C 116.695312 165.664062 115.28125 174.058594 109.148438 174.996094 C 103.019531 175.929688 61.570312 181.242188 61.570312 181.242188 L 44.484375 215.253906 L 36.773438 212.628906 L 50.765625 171.957031 C 50.765625 171.957031 51.675781 169.179688 58.953125 167.128906 C 65.859375 165.183594 102.660156 153.359375 102.660156 153.359375 C 102.660156 153.359375 116.417969 151.011719 116.695312 165.664062 " fill-opacity="1" fill-rule="evenodd"/><path fill="#f25e0d" d="M 137.859375 163.261719 C 138.289062 166.980469 137.261719 171.269531 132.957031 173.152344 C 128.648438 175.035156 126.070312 175.464844 126.070312 175.464844 L 84.59375 180.839844 L 87.402344 217.015625 L 79.246094 218.082031 L 70.292969 175.644531 C 70.292969 175.644531 70.226562 170.441406 75.410156 168.808594 C 80.59375 167.175781 124.363281 153.34375 124.363281 153.34375 C 124.363281 153.34375 136.957031 155.441406 137.859375 163.261719 " fill-opacity="1" fill-rule="evenodd"/><path fill="#fdb58e" d="M 60.710938 139.335938 L 58.292969 139.570312 L 53.511719 140.996094 L 45.226562 141.378906 C 45.226562 141.378906 38.128906 148.464844 39.261719 148.382812 C 43.199219 148.105469 48.628906 146.019531 48.628906 146.019531 C 48.628906 146.019531 51.695312 146.203125 52.859375 146.183594 C 53.785156 146.167969 55.617188 145.902344 55.617188 145.902344 L 59.128906 145.449219 L 61.277344 144.992188 L 60.710938 139.335938 " fill-opacity="1" fill-rule="evenodd"/><path fill="#f2af0d" d="M 97.351562 107.550781 C 97.351562 107.550781 102.152344 113.085938 100.105469 117.359375 C 98.0625 121.636719 82.980469 142.796875 82.980469 142.796875 C 82.980469 142.796875 81.8125 144.742188 78.480469 144.792969 C 75.144531 144.84375 55.28125 146.242188 55.28125 146.242188 L 54.527344 140.28125 L 75.992188 136.03125 C 75.992188 136.03125 85.8125 113.996094 88.492188 108.703125 C 88.667969 108.347656 91.265625 105.164062 97.351562 107.550781 " fill-opacity="1" fill-rule="evenodd"/><path fill="#fdb58e" d="M 115.503906 108.9375 L 124.921875 103.648438 C 124.921875 103.648438 121.210938 102.070312 120.691406 100.742188 C 119.597656 97.929688 120.136719 90.570312 120.136719 90.570312 L 110.894531 90.339844 C 110.894531 90.339844 111.125 98.074219 109.242188 100.511719 C 108.207031 101.855469 105.765625 102.804688 105.765625 102.804688 L 115.503906 108.9375 " fill-opacity="1" fill-rule="evenodd"/><path fill="#fdb58e" d="M 123.214844 82.539062 C 123.941406 84.316406 125.253906 86.257812 123.910156 90.949219 C 122.613281 95.472656 119.160156 99.980469 111.890625 98.382812 C 108.976562 97.742188 106.398438 91.078125 106.070312 88.527344 C 105.40625 83.289062 107.328125 80.691406 112.125 79.273438 C 115.285156 78.339844 117.054688 77.570312 119.550781 80.289062 C 120.949219 81.816406 122.671875 81.214844 123.214844 82.539062 " fill-opacity="1" fill-rule="evenodd"/><g clip-path="url(#id1)"><path fill="#000000" d="M 112.789062 74.601562 C 112.394531 73.976562 112.152344 73.246094 112.121094 72.460938 C 112.019531 70.050781 113.886719 68.011719 116.296875 67.910156 C 118.707031 67.804688 120.75 69.675781 120.851562 72.082031 C 120.886719 72.824219 120.730469 73.53125 120.429688 74.15625 C 121.679688 73.957031 123.078125 73.675781 123.414062 72.816406 C 123.3125 74.777344 121.921875 75.453125 120.625 75.597656 C 123.832031 77.175781 125.425781 79.847656 125.371094 82.183594 C 125.300781 85.160156 124.039062 89.25 124.039062 89.25 C 124.039062 89.25 122.328125 85.804688 121.023438 84.550781 C 119.722656 83.300781 118.039062 82.457031 115.332031 82.289062 C 113.378906 82.167969 110.148438 83.117188 108.863281 85.292969 C 108.199219 86.421875 106.320312 89.730469 106.320312 89.730469 C 106.320312 89.730469 106.347656 88.78125 106.136719 88.125 C 105.453125 86.003906 105.726562 81.109375 107.039062 78.632812 C 108.167969 76.511719 110.449219 75.160156 112.789062 74.601562 " fill-opacity="1" fill-rule="evenodd"/></g><path fill="#fdb58e" d="M 124.339844 87.480469 C 125.171875 87.601562 125.691406 88.742188 125.5 90.027344 C 125.3125 91.3125 124.480469 92.253906 123.652344 92.132812 C 122.816406 92.007812 122.296875 90.867188 122.484375 89.582031 C 122.675781 88.296875 123.507812 87.355469 124.339844 87.480469 " fill-opacity="1" fill-rule="evenodd"/><path fill="#fdb58e" d="M 106.066406 87.875 C 106.867188 87.621094 107.832031 88.425781 108.21875 89.664062 C 108.605469 90.90625 108.265625 92.113281 107.464844 92.363281 C 106.660156 92.613281 105.695312 91.808594 105.308594 90.570312 C 104.921875 89.332031 105.261719 88.121094 106.066406 87.875 " fill-opacity="1" fill-rule="evenodd"/><path fill="#f2af0d" d="M 107.441406 101.910156 C 107.441406 101.910156 110.972656 104.953125 114.695312 104.9375 C 118.9375 104.925781 121.476562 101.5625 121.476562 101.5625 C 121.476562 101.5625 127.535156 102.582031 130.558594 103.183594 C 131.507812 103.371094 138.027344 105.25 139.976562 111.023438 C 142.535156 118.59375 135.988281 131.886719 135.519531 137.050781 C 135.09375 141.714844 139.058594 155.890625 138.414062 159.277344 C 137.894531 162 132.746094 161.820312 130.628906 161.882812 C 124.195312 162.066406 115.960938 161.671875 110.703125 160.097656 C 107.578125 159.160156 100.386719 156.570312 98.34375 155.480469 C 96.15625 154.3125 98.585938 146.898438 98.929688 144.136719 C 99.257812 141.511719 95.972656 130.445312 94.507812 126.78125 C 92.832031 122.601562 84.664062 114.1875 88.945312 108.277344 C 90.140625 106.628906 99.441406 104.082031 101.191406 103.378906 C 102.6875 102.785156 107.441406 101.910156 107.441406 101.910156 " fill-opacity="1" fill-rule="evenodd"/><path fill="#fdb58e" d="M 106.707031 139.09375 L 104.277344 139.109375 L 99.386719 140.101562 L 91.101562 139.742188 C 91.101562 139.742188 83.398438 146.164062 84.535156 146.183594 C 88.480469 146.261719 94.074219 144.667969 94.074219 144.667969 C 94.074219 144.667969 97.113281 145.125 98.277344 145.207031 C 99.195312 145.277344 101.042969 145.175781 101.042969 145.175781 L 104.585938 145.035156 L 106.765625 144.777344 L 106.707031 139.09375 " fill-opacity="1" fill-rule="evenodd"/><path fill="#f2af0d" d="M 136.347656 107.238281 C 136.347656 107.238281 142.347656 110.609375 140.199219 115.8125 C 138.046875 121.019531 129.261719 141.253906 129.261719 141.253906 C 129.261719 141.253906 127.445312 144.984375 124.464844 144.992188 C 121.480469 144.992188 101.25 145.378906 101.25 145.378906 L 100.6875 139.535156 L 120.90625 136.308594 L 128.367188 109.261719 C 128.367188 109.261719 129.472656 105.226562 136.347656 107.238281 " fill-opacity="1" fill-rule="evenodd"/><path fill="#ffffff" d="M 120.640625 136.40625 L 126.699219 114.652344 C 126.722656 114.570312 126.804688 114.527344 126.882812 114.546875 C 126.960938 114.570312 127.007812 114.652344 126.988281 114.730469 L 120.902344 136.578125 C 120.886719 136.632812 120.835938 136.675781 120.78125 136.683594 L 101.09375 139.761719 C 101.015625 139.773438 100.9375 139.71875 100.925781 139.636719 C 100.914062 139.554688 100.96875 139.480469 101.050781 139.46875 L 120.640625 136.40625 " fill-opacity="1" fill-rule="evenodd"/><path fill="#ffffff" d="M 39.074219 210.957031 L 44.128906 212.675781 C 44.207031 212.703125 44.292969 212.660156 44.320312 212.582031 C 44.347656 212.503906 44.304688 212.421875 44.226562 212.394531 L 39.171875 210.675781 C 39.09375 210.648438 39.007812 210.691406 38.984375 210.769531 C 38.957031 210.84375 38.996094 210.929688 39.074219 210.957031 " fill-opacity="1" fill-rule="evenodd"/><path fill="#ffffff" d="M 80.3125 215.6875 L 85.578125 215.078125 C 85.65625 215.066406 85.714844 214.992188 85.707031 214.914062 C 85.695312 214.828125 85.625 214.773438 85.542969 214.78125 L 80.277344 215.390625 C 80.195312 215.402344 80.136719 215.476562 80.148438 215.554688 C 80.15625 215.640625 80.230469 215.695312 80.3125 215.6875 " fill-opacity="1" fill-rule="evenodd"/><path fill="#ffffff" d="M 107.324219 106.203125 C 107.324219 106.203125 114.953125 110.894531 122.0625 105.253906 C 122.125 105.203125 122.136719 105.109375 122.085938 105.046875 C 122.035156 104.980469 121.941406 104.972656 121.878906 105.023438 C 114.929688 110.53125 107.480469 105.953125 107.480469 105.953125 C 107.40625 105.910156 107.316406 105.929688 107.273438 106 C 107.230469 106.070312 107.253906 106.164062 107.324219 106.203125 " fill-opacity="1" fill-rule="evenodd"/><path fill="#ffffff" d="M 78.09375 175.753906 L 82.355469 212.59375 C 82.363281 212.671875 82.304688 212.746094 82.222656 212.757812 C 82.140625 212.765625 82.070312 212.707031 82.058594 212.628906 L 77.785156 175.65625 C 77.777344 175.582031 77.824219 175.511719 77.898438 175.496094 L 119.667969 165.886719 C 119.746094 165.867188 119.828125 165.917969 119.84375 165.996094 C 119.863281 166.074219 119.8125 166.15625 119.734375 166.175781 L 78.09375 175.753906 " fill-opacity="1" fill-rule="evenodd"/><path fill="#ffffff" d="M 128.730469 141.722656 L 134.816406 128.730469 C 134.851562 128.65625 134.941406 128.625 135.015625 128.65625 C 135.089844 128.691406 135.121094 128.78125 135.085938 128.855469 L 129 141.851562 C 129 141.851562 128.996094 141.851562 128.996094 141.855469 C 128.996094 141.855469 127.226562 145.34375 123.878906 145.238281 C 121.125 145.15625 101.417969 145.527344 101.417969 145.527344 C 101.335938 145.53125 101.269531 145.464844 101.265625 145.382812 C 101.265625 145.300781 101.332031 145.234375 101.410156 145.230469 C 101.410156 145.230469 121.132812 144.859375 123.890625 144.941406 C 127.023438 145.039062 128.691406 141.804688 128.730469 141.722656 " fill-opacity="1" fill-rule="evenodd"/><path fill="#ffffff" d="M 56.449219 141.03125 L 57.113281 145.363281 C 57.121094 145.417969 57.175781 145.457031 57.230469 145.449219 C 57.289062 145.441406 57.328125 145.386719 57.320312 145.332031 L 56.65625 140.996094 C 56.648438 140.941406 56.59375 140.902344 56.535156 140.910156 C 56.480469 140.917969 56.4375 140.972656 56.449219 141.03125 " fill-opacity="1" fill-rule="evenodd"/><path fill="#000000" d="M 164.832031 147.816406 L 0.128906 147.816406 L 0.128906 154.574219 L 164.832031 154.574219 L 164.832031 147.816406 " fill-opacity="1" fill-rule="evenodd"/><path fill="#000000" d="M 13.160156 151.039062 L 1.042969 229.949219 C 0.796875 230.734375 1.230469 231.566406 2.011719 231.8125 C 2.792969 232.0625 3.632812 231.628906 3.878906 230.847656 L 18.828125 152.828125 C 19.324219 151.265625 18.453125 149.597656 16.890625 149.101562 C 15.324219 148.609375 13.65625 149.476562 13.160156 151.039062 " fill-opacity="1" fill-rule="evenodd"/><path fill="#000000" d="M 151.691406 151.039062 L 163.808594 229.949219 C 164.054688 230.734375 163.621094 231.566406 162.839844 231.8125 C 162.054688 232.0625 161.222656 231.628906 160.972656 230.847656 L 146.023438 152.828125 C 145.527344 151.265625 146.398438 149.597656 147.960938 149.101562 C 149.527344 148.609375 151.195312 149.476562 151.691406 151.039062 " fill-opacity="1" fill-rule="evenodd"/><path fill="#000000" d="M 101.53125 96.75 L 27.441406 96.75 L 27.441406 137.101562 L 101.53125 137.101562 L 101.53125 96.75 " fill-opacity="1" fill-rule="evenodd"/><path fill="#000000" d="M 70.804688 127.507812 L 59.152344 127.507812 L 59.152344 149.679688 L 70.804688 149.679688 L 70.804688 127.507812 " fill-opacity="1" fill-rule="evenodd"/><path fill="#ffffff" d="M 64.484375 113.679688 C 66.433594 113.679688 68.011719 115.257812 68.011719 117.199219 C 68.011719 119.144531 66.433594 120.722656 64.484375 120.722656 C 62.539062 120.722656 60.960938 119.144531 60.960938 117.199219 C 60.960938 115.257812 62.539062 113.679688 64.484375 113.679688 " fill-opacity="1" fill-rule="evenodd"/><path fill="#000000" d="M 95.859375 145.863281 L 42.925781 145.863281 L 42.925781 149.226562 L 95.859375 149.226562 L 95.859375 145.863281 " fill-opacity="1" fill-rule="evenodd"/></svg>