<svg xmlns="http://www.w3.org/2000/svg" xmlns:xlink="http://www.w3.org/1999/xlink" width="200" zoomAndPan="magnify" viewBox="0 0 150 149.999998" height="200" preserveAspectRatio="xMidYMid meet" version="1.0"><defs><clipPath id="id1"><path d="M 1 0 L 149.25 0 L 149.25 148.5 L 1 148.5 Z M 1 0 " clip-rule="nonzero"/></clipPath><clipPath id="id2"><path d="M 42 91 L 108 91 L 108 148.5 L 42 148.5 Z M 42 91 " clip-rule="nonzero"/></clipPath><clipPath id="id3"><path d="M 38 114 L 112 114 L 112 148.5 L 38 148.5 Z M 38 114 " clip-rule="nonzero"/></clipPath></defs><g clip-path="url(#id1)"><path fill="#f2f2f2" d="M 149.128906 74.53125 C 149.136719 78.863281 148.761719 83.160156 148.011719 87.425781 C 147.261719 91.691406 146.140625 95.859375 144.65625 99.925781 C 143.167969 103.996094 141.339844 107.902344 139.164062 111.648438 C 136.988281 115.390625 134.503906 118.917969 131.707031 122.222656 C 131.296875 122.710938 130.878906 123.191406 130.457031 123.664062 C 125.429688 129.320312 119.671875 134.097656 113.1875 137.996094 C 111.707031 138.882812 110.199219 139.722656 108.652344 140.507812 C 108.496094 140.585938 108.339844 140.664062 108.183594 140.742188 C 107.996094 140.835938 107.808594 140.929688 107.617188 141.019531 C 103.703125 142.9375 99.648438 144.492188 95.457031 145.683594 C 95.023438 145.808594 94.585938 145.925781 94.152344 146.042969 C 88.628906 147.503906 83.015625 148.3125 77.304688 148.472656 C 77.007812 148.480469 76.714844 148.484375 76.433594 148.488281 C 76.335938 148.492188 76.238281 148.496094 76.140625 148.496094 C 75.820312 148.496094 75.503906 148.5 75.183594 148.5 C 69.164062 148.503906 63.234375 147.785156 57.390625 146.34375 C 56.808594 146.199219 56.226562 146.046875 55.648438 145.890625 C 52.597656 145.054688 49.617188 144.03125 46.699219 142.808594 C 45.164062 142.171875 43.65625 141.480469 42.175781 140.738281 C 41.84375 140.570312 41.507812 140.402344 41.175781 140.226562 C 41.035156 140.160156 40.898438 140.085938 40.761719 140.011719 C 32.804688 135.8125 25.839844 130.347656 19.867188 123.617188 C 19.457031 123.160156 19.058594 122.691406 18.660156 122.222656 C 17.847656 121.261719 17.058594 120.277344 16.296875 119.269531 C 15.535156 118.265625 14.796875 117.242188 14.085938 116.199219 C 13.375 115.15625 12.691406 114.097656 12.035156 113.019531 C 11.378906 111.941406 10.753906 110.847656 10.152344 109.738281 C 9.550781 108.628906 8.980469 107.507812 8.4375 106.367188 C 7.894531 105.230469 7.382812 104.078125 6.898438 102.910156 C 6.414062 101.746094 5.960938 100.570312 5.535156 99.382812 C 5.113281 98.195312 4.71875 96.996094 4.355469 95.785156 C 3.996094 94.578125 3.664062 93.363281 3.363281 92.136719 C 3.0625 90.910156 2.792969 89.679688 2.558594 88.4375 C 2.320312 87.199219 2.113281 85.957031 1.941406 84.707031 C 1.769531 83.457031 1.625 82.203125 1.515625 80.945312 C 1.40625 79.691406 1.332031 78.429688 1.285156 77.171875 C 1.242188 75.910156 1.226562 74.648438 1.246094 73.386719 C 1.265625 72.125 1.320312 70.863281 1.402344 69.605469 C 1.488281 68.347656 1.601562 67.089844 1.75 65.839844 C 1.898438 64.585938 2.078125 63.335938 2.292969 62.09375 C 2.503906 60.851562 2.746094 59.613281 3.023438 58.382812 C 3.296875 57.152344 3.605469 55.925781 3.941406 54.710938 C 4.28125 53.496094 4.648438 52.289062 5.046875 51.09375 C 5.449219 49.898438 5.878906 48.710938 6.339844 47.535156 C 6.796875 46.363281 7.289062 45.199219 7.808594 44.050781 C 8.328125 42.902344 8.875 41.765625 9.453125 40.644531 C 10.03125 39.523438 10.636719 38.417969 11.273438 37.324219 C 11.90625 36.234375 12.570312 35.164062 13.257812 34.105469 C 13.945312 33.050781 14.664062 32.011719 15.40625 30.992188 C 16.148438 29.972656 16.914062 28.96875 17.707031 27.988281 C 18.503906 27.007812 19.320312 26.050781 20.164062 25.109375 C 21.003906 24.171875 21.871094 23.253906 22.761719 22.359375 C 23.652344 21.464844 24.5625 20.59375 25.496094 19.746094 C 26.429688 18.898438 27.386719 18.078125 28.363281 17.277344 C 29.335938 16.480469 30.332031 15.707031 31.347656 14.957031 C 31.769531 14.648438 32.191406 14.339844 32.617188 14.042969 C 32.703125 13.980469 32.785156 13.921875 32.871094 13.863281 C 40.445312 8.558594 48.726562 4.816406 57.714844 2.640625 C 58.222656 2.515625 58.730469 2.398438 59.242188 2.289062 C 68.988281 0.15625 78.769531 -0.015625 88.582031 1.773438 C 89.09375 1.867188 89.601562 1.964844 90.109375 2.070312 C 99.015625 3.898438 107.296875 7.261719 114.953125 12.164062 C 115.121094 12.269531 115.289062 12.378906 115.460938 12.488281 C 115.800781 12.710938 116.140625 12.933594 116.476562 13.164062 C 118.980469 14.847656 121.375 16.679688 123.652344 18.65625 C 125.933594 20.636719 128.085938 22.746094 130.109375 24.988281 C 132.128906 27.230469 134.007812 29.585938 135.742188 32.058594 C 137.472656 34.53125 139.050781 37.101562 140.46875 39.765625 C 141.886719 42.429688 143.136719 45.171875 144.21875 47.992188 C 145.300781 50.8125 146.207031 53.6875 146.9375 56.617188 C 147.667969 59.546875 148.214844 62.507812 148.582031 65.507812 C 148.949219 68.503906 149.132812 71.511719 149.128906 74.53125 Z M 149.128906 74.53125 " fill-opacity="1" fill-rule="nonzero"/></g><path fill="#cccccc" d="M 56.503906 112.796875 L 32.871094 114.898438 L 32.617188 114.917969 L 32.617188 14.042969 C 32.703125 13.980469 32.785156 13.921875 32.871094 13.863281 C 37.816406 10.40625 43.105469 7.59375 48.738281 5.433594 L 49.945312 22.097656 L 50.054688 23.621094 L 51.25 40.144531 L 51.617188 45.226562 L 56.460938 112.210938 Z M 56.503906 112.796875 " fill-opacity="1" fill-rule="nonzero"/><path fill="#cccccc" d="M 114.953125 12.164062 C 115.121094 12.269531 115.289062 12.378906 115.460938 12.488281 L 115.460938 114.917969 L 114.953125 114.875 L 91.574219 112.796875 L 91.617188 112.210938 L 96.460938 45.226562 L 96.832031 40.144531 L 98.023438 23.621094 L 98.136719 22.097656 L 99.402344 4.621094 C 104.882812 6.523438 110.066406 9.035156 114.953125 12.164062 Z M 114.953125 12.164062 " fill-opacity="1" fill-rule="nonzero"/><path fill="#cccccc" d="M 114.953125 12.164062 L 114.953125 116.316406 C 114.953125 118.316406 113.578125 119.941406 111.882812 119.941406 L 35.941406 119.941406 C 34.539062 119.941406 33.351562 118.824219 32.988281 117.300781 C 32.910156 116.980469 32.871094 116.652344 32.871094 116.316406 L 32.871094 13.863281 C 32.785156 13.921875 32.703125 13.980469 32.617188 14.042969 C 32.191406 14.339844 31.769531 14.648438 31.347656 14.957031 L 31.347656 116.316406 C 31.335938 117.078125 31.46875 117.808594 31.742188 118.519531 C 32.015625 119.226562 32.410156 119.859375 32.929688 120.414062 C 33.484375 120.992188 34.148438 121.390625 34.921875 121.605469 C 35.253906 121.695312 35.59375 121.742188 35.941406 121.742188 L 111.882812 121.742188 C 112.230469 121.742188 112.570312 121.695312 112.90625 121.605469 C 114.949219 121.054688 116.476562 118.894531 116.476562 116.316406 L 116.476562 13.164062 C 116.140625 12.933594 115.800781 12.710938 115.460938 12.488281 C 115.289062 12.378906 115.121094 12.269531 114.953125 12.164062 Z M 114.953125 12.164062 " fill-opacity="1" fill-rule="nonzero"/><path fill="#cccccc" d="M 32.109375 22.097656 L 115.714844 22.097656 L 115.714844 23.621094 L 32.109375 23.621094 Z M 32.109375 22.097656 " fill-opacity="1" fill-rule="nonzero"/><path fill="#cccccc" d="M 57.714844 2.640625 C 58.222656 2.515625 58.730469 2.398438 59.242188 2.289062 L 59.242188 43.703125 L 57.714844 43.703125 Z M 57.714844 2.640625 " fill-opacity="1" fill-rule="nonzero"/><path fill="#cccccc" d="M 88.582031 1.773438 C 89.09375 1.867188 89.601562 1.964844 90.109375 2.070312 L 90.109375 43.703125 L 88.582031 43.703125 Z M 88.582031 1.773438 " fill-opacity="1" fill-rule="nonzero"/><path fill="#cccccc" d="M 125.242188 112.210938 L 25.121094 112.210938 C 24.671875 112.210938 24.222656 112.253906 23.78125 112.339844 C 23.339844 112.429688 22.910156 112.558594 22.496094 112.730469 C 22.078125 112.90625 21.683594 113.117188 21.308594 113.367188 C 20.933594 113.617188 20.585938 113.902344 20.269531 114.21875 C 19.949219 114.539062 19.664062 114.886719 19.414062 115.261719 C 19.164062 115.636719 18.953125 116.03125 18.78125 116.445312 C 18.609375 116.863281 18.480469 117.292969 18.390625 117.734375 C 18.304688 118.175781 18.257812 118.625 18.257812 119.074219 C 18.257812 119.523438 18.304688 119.972656 18.390625 120.414062 C 18.480469 120.855469 18.609375 121.285156 18.78125 121.699219 C 18.953125 122.117188 19.164062 122.511719 19.414062 122.886719 C 19.664062 123.261719 19.949219 123.609375 20.269531 123.929688 C 20.585938 124.246094 20.933594 124.53125 21.308594 124.78125 C 21.683594 125.03125 22.078125 125.242188 22.496094 125.414062 C 22.910156 125.589844 23.339844 125.71875 23.78125 125.804688 C 24.222656 125.894531 24.671875 125.9375 25.121094 125.9375 L 125.242188 125.9375 C 126.230469 125.9375 127.171875 125.734375 128.070312 125.328125 C 128.96875 124.921875 129.742188 124.347656 130.390625 123.605469 C 130.683594 123.273438 130.941406 122.917969 131.164062 122.535156 C 131.335938 122.246094 131.488281 121.941406 131.613281 121.625 C 131.714844 121.367188 131.804688 121.101562 131.875 120.832031 C 131.949219 120.5625 132.003906 120.289062 132.042969 120.011719 C 132.078125 119.734375 132.101562 119.457031 132.105469 119.175781 C 132.109375 118.898438 132.097656 118.617188 132.066406 118.339844 C 132.039062 118.0625 131.992188 117.789062 131.929688 117.515625 C 131.863281 117.242188 131.785156 116.976562 131.6875 116.714844 C 131.59375 116.449219 131.480469 116.195312 131.355469 115.945312 C 131.226562 115.695312 131.085938 115.457031 130.929688 115.226562 C 130.773438 114.992188 130.601562 114.773438 130.417969 114.5625 C 130.234375 114.351562 130.039062 114.152344 129.832031 113.964844 C 129.625 113.777344 129.40625 113.605469 129.175781 113.445312 C 128.945312 113.285156 128.707031 113.140625 128.460938 113.007812 C 128.214844 112.878906 127.960938 112.761719 127.699219 112.664062 C 127.4375 112.5625 127.171875 112.480469 126.902344 112.410156 C 126.628906 112.34375 126.355469 112.292969 126.078125 112.261719 C 125.800781 112.226562 125.523438 112.210938 125.242188 112.210938 Z M 125.242188 112.210938 " fill-opacity="1" fill-rule="nonzero"/><path fill="#cccccc" d="M 32.617188 40.144531 L 115.714844 40.144531 L 115.714844 45.230469 L 32.617188 45.230469 Z M 32.617188 40.144531 " fill-opacity="1" fill-rule="nonzero"/><path fill="#cccccc" d="M 73.40625 38.621094 L 74.929688 38.621094 C 75.300781 38.621094 75.65625 38.691406 76 38.832031 C 76.339844 38.972656 76.644531 39.175781 76.90625 39.4375 C 77.167969 39.699219 77.371094 40.003906 77.511719 40.347656 C 77.652344 40.6875 77.722656 41.046875 77.722656 41.414062 L 70.609375 41.414062 C 70.609375 41.046875 70.679688 40.6875 70.820312 40.347656 C 70.964844 40.003906 71.164062 39.699219 71.429688 39.4375 C 71.691406 39.175781 71.992188 38.972656 72.335938 38.832031 C 72.675781 38.691406 73.035156 38.621094 73.40625 38.621094 Z M 73.40625 38.621094 " fill-opacity="1" fill-rule="nonzero"/><path fill="#3f3d56" d="M 131.707031 122.222656 C 129.480469 124.863281 127.082031 127.332031 124.511719 129.632812 L 25.855469 129.632812 C 23.285156 127.332031 20.886719 124.863281 18.660156 122.222656 Z M 131.707031 122.222656 " fill-opacity="1" fill-rule="nonzero"/><path fill="#2f2e41" d="M 83.441406 96.5625 L 66.832031 96.5625 C 66.742188 96.558594 66.65625 96.574219 66.570312 96.601562 C 66.382812 96.660156 66.234375 96.765625 66.117188 96.921875 C 66.003906 97.078125 65.945312 97.253906 65.945312 97.445312 L 65.945312 123.695312 L 84.332031 123.695312 L 84.332031 97.445312 C 84.332031 97.203125 84.242188 96.992188 84.070312 96.820312 C 83.898438 96.648438 83.6875 96.558594 83.441406 96.5625 Z M 77.15625 109.511719 C 77.15625 109.949219 77.023438 110.34375 76.757812 110.6875 C 76.503906 111.023438 76.175781 111.253906 75.773438 111.378906 C 75.371094 111.503906 74.972656 111.5 74.570312 111.367188 C 74.171875 111.234375 73.851562 110.996094 73.601562 110.65625 C 73.355469 110.3125 73.234375 109.933594 73.230469 109.511719 L 73.230469 106.464844 C 73.234375 106.207031 73.285156 105.957031 73.386719 105.71875 C 73.488281 105.480469 73.628906 105.273438 73.8125 105.089844 C 73.996094 104.90625 74.207031 104.765625 74.445312 104.667969 C 74.6875 104.570312 74.933594 104.519531 75.195312 104.519531 C 75.453125 104.519531 75.703125 104.570312 75.941406 104.667969 C 76.179688 104.765625 76.390625 104.90625 76.574219 105.089844 C 76.757812 105.273438 76.902344 105.480469 77.003906 105.71875 C 77.101562 105.957031 77.152344 106.207031 77.15625 106.464844 Z M 77.15625 109.511719 " fill-opacity="1" fill-rule="nonzero"/><path fill="#3f3d56" d="M 65.890625 122.855469 L 65.890625 125.386719 C 65.890625 125.523438 65.9375 125.640625 66.035156 125.738281 C 66.132812 125.835938 66.25 125.882812 66.382812 125.882812 L 83.894531 125.882812 C 84.03125 125.882812 84.144531 125.835938 84.242188 125.738281 C 84.339844 125.640625 84.386719 125.523438 84.386719 125.386719 L 84.386719 122.855469 Z M 65.890625 122.855469 " fill-opacity="1" fill-rule="nonzero"/><path fill="#3f3d56" d="M 110.949219 55.597656 L 39.945312 55.597656 C 39.640625 55.597656 39.347656 55.65625 39.066406 55.773438 C 38.785156 55.890625 38.535156 56.054688 38.320312 56.269531 C 38.105469 56.488281 37.9375 56.734375 37.820312 57.015625 C 37.703125 57.300781 37.644531 57.59375 37.644531 57.898438 L 37.644531 105.824219 C 37.644531 106.132812 37.703125 106.425781 37.820312 106.707031 C 37.9375 106.988281 38.101562 107.238281 38.316406 107.453125 C 38.535156 107.671875 38.78125 107.835938 39.066406 107.953125 C 39.347656 108.070312 39.640625 108.128906 39.945312 108.128906 L 110.949219 108.128906 C 111.253906 108.128906 111.546875 108.070312 111.828125 107.953125 C 112.113281 107.835938 112.359375 107.671875 112.578125 107.453125 C 112.792969 107.238281 112.957031 106.988281 113.074219 106.707031 C 113.191406 106.425781 113.25 106.132812 113.25 105.824219 L 113.25 57.898438 C 113.25 57.59375 113.191406 57.300781 113.074219 57.015625 C 112.957031 56.734375 112.792969 56.488281 112.574219 56.269531 C 112.359375 56.054688 112.109375 55.890625 111.828125 55.773438 C 111.546875 55.65625 111.253906 55.597656 110.949219 55.597656 Z M 110.949219 55.597656 " fill-opacity="1" fill-rule="nonzero"/><path fill="#00bfa6" d="M 110.355469 57.261719 L 40.539062 57.261719 C 40.375 57.261719 40.214844 57.292969 40.066406 57.355469 C 39.914062 57.417969 39.78125 57.507812 39.667969 57.621094 C 39.550781 57.738281 39.460938 57.871094 39.398438 58.023438 C 39.335938 58.171875 39.304688 58.332031 39.304688 58.492188 L 39.304688 105.234375 C 39.308594 105.398438 39.339844 105.554688 39.402344 105.707031 C 39.464844 105.855469 39.550781 105.988281 39.667969 106.105469 C 39.78125 106.21875 39.914062 106.308594 40.066406 106.371094 C 40.21875 106.433594 40.375 106.464844 40.539062 106.464844 L 110.355469 106.464844 C 110.519531 106.464844 110.675781 106.433594 110.824219 106.371094 C 110.976562 106.308594 111.109375 106.21875 111.226562 106.105469 C 111.339844 105.988281 111.429688 105.855469 111.492188 105.707031 C 111.554688 105.554688 111.585938 105.398438 111.585938 105.234375 L 111.585938 58.492188 C 111.585938 58.332031 111.554688 58.171875 111.492188 58.023438 C 111.429688 57.871094 111.339844 57.738281 111.226562 57.621094 C 111.109375 57.507812 110.976562 57.417969 110.828125 57.355469 C 110.675781 57.292969 110.519531 57.261719 110.355469 57.261719 Z M 110.355469 57.261719 " fill-opacity="1" fill-rule="nonzero"/><path fill="#2f2e41" d="M 97.503906 125.84375 L 96.859375 122.78125 C 96.804688 122.507812 96.644531 122.324219 96.386719 122.222656 C 96.296875 122.191406 96.207031 122.171875 96.113281 122.171875 L 55.863281 122.171875 C 55.769531 122.171875 55.679688 122.191406 55.59375 122.222656 C 55.332031 122.324219 55.175781 122.507812 55.117188 122.78125 L 54.472656 125.84375 C 54.449219 125.957031 54.449219 126.070312 54.476562 126.179688 C 54.503906 126.292969 54.554688 126.394531 54.625 126.480469 C 54.699219 126.570312 54.785156 126.640625 54.890625 126.691406 C 54.996094 126.738281 55.105469 126.765625 55.21875 126.765625 L 96.757812 126.765625 C 97 126.765625 97.199219 126.671875 97.347656 126.480469 C 97.503906 126.292969 97.554688 126.082031 97.503906 125.84375 Z M 97.503906 125.84375 " fill-opacity="1" fill-rule="nonzero"/><path fill="#3f3d56" d="M 56.285156 122.726562 L 57.3125 122.726562 C 57.394531 122.726562 57.4375 122.765625 57.4375 122.851562 L 57.4375 123.367188 C 57.4375 123.453125 57.394531 123.492188 57.3125 123.492188 L 56.285156 123.492188 C 56.199219 123.492188 56.160156 123.453125 56.160156 123.367188 L 56.160156 122.851562 C 56.160156 122.765625 56.199219 122.726562 56.285156 122.726562 Z M 56.285156 122.726562 " fill-opacity="1" fill-rule="nonzero"/><path fill="#3f3d56" d="M 58.84375 122.726562 L 59.871094 122.726562 C 59.953125 122.726562 59.996094 122.765625 59.996094 122.851562 L 59.996094 123.367188 C 59.996094 123.453125 59.953125 123.492188 59.871094 123.492188 L 58.84375 123.492188 C 58.757812 123.492188 58.71875 123.453125 58.71875 123.367188 L 58.71875 122.851562 C 58.71875 122.765625 58.757812 122.726562 58.84375 122.726562 Z M 58.84375 122.726562 " fill-opacity="1" fill-rule="nonzero"/><path fill="#3f3d56" d="M 61.402344 122.726562 L 62.429688 122.726562 C 62.511719 122.726562 62.554688 122.765625 62.554688 122.851562 L 62.554688 123.367188 C 62.554688 123.453125 62.511719 123.492188 62.429688 123.492188 L 61.402344 123.492188 C 61.316406 123.492188 61.277344 123.453125 61.277344 123.367188 L 61.277344 122.851562 C 61.277344 122.765625 61.316406 122.726562 61.402344 122.726562 Z M 61.402344 122.726562 " fill-opacity="1" fill-rule="nonzero"/><path fill="#3f3d56" d="M 63.960938 122.726562 L 64.988281 122.726562 C 65.070312 122.726562 65.113281 122.765625 65.113281 122.851562 L 65.113281 123.367188 C 65.113281 123.453125 65.070312 123.492188 64.988281 123.492188 L 63.960938 123.492188 C 63.875 123.492188 63.835938 123.453125 63.835938 123.367188 L 63.835938 122.851562 C 63.835938 122.765625 63.875 122.726562 63.960938 122.726562 Z M 63.960938 122.726562 " fill-opacity="1" fill-rule="nonzero"/><path fill="#3f3d56" d="M 66.519531 122.726562 L 67.546875 122.726562 C 67.628906 122.726562 67.671875 122.765625 67.671875 122.851562 L 67.671875 123.367188 C 67.671875 123.453125 67.628906 123.492188 67.546875 123.492188 L 66.519531 123.492188 C 66.433594 123.492188 66.394531 123.453125 66.394531 123.367188 L 66.394531 122.851562 C 66.394531 122.765625 66.433594 122.726562 66.519531 122.726562 Z M 66.519531 122.726562 " fill-opacity="1" fill-rule="nonzero"/><path fill="#3f3d56" d="M 69.078125 122.726562 L 70.105469 122.726562 C 70.191406 122.726562 70.230469 122.765625 70.230469 122.851562 L 70.230469 123.367188 C 70.230469 123.453125 70.191406 123.492188 70.105469 123.492188 L 69.078125 123.492188 C 68.992188 123.492188 68.953125 123.453125 68.953125 123.367188 L 68.953125 122.851562 C 68.953125 122.765625 68.992188 122.726562 69.078125 122.726562 Z M 69.078125 122.726562 " fill-opacity="1" fill-rule="nonzero"/><path fill="#3f3d56" d="M 71.636719 122.726562 L 72.664062 122.726562 C 72.75 122.726562 72.789062 122.765625 72.789062 122.851562 L 72.789062 123.367188 C 72.789062 123.453125 72.75 123.492188 72.664062 123.492188 L 71.636719 123.492188 C 71.550781 123.492188 71.511719 123.453125 71.511719 123.367188 L 71.511719 122.851562 C 71.511719 122.765625 71.550781 122.726562 71.636719 122.726562 Z M 71.636719 122.726562 " fill-opacity="1" fill-rule="nonzero"/><path fill="#3f3d56" d="M 74.195312 122.726562 L 75.222656 122.726562 C 75.308594 122.726562 75.347656 122.765625 75.347656 122.851562 L 75.347656 123.367188 C 75.347656 123.453125 75.308594 123.492188 75.222656 123.492188 L 74.195312 123.492188 C 74.109375 123.492188 74.070312 123.453125 74.070312 123.367188 L 74.070312 122.851562 C 74.070312 122.765625 74.109375 122.726562 74.195312 122.726562 Z M 74.195312 122.726562 " fill-opacity="1" fill-rule="nonzero"/><path fill="#3f3d56" d="M 76.753906 122.726562 L 77.78125 122.726562 C 77.867188 122.726562 77.90625 122.765625 77.90625 122.851562 L 77.90625 123.367188 C 77.90625 123.453125 77.867188 123.492188 77.78125 123.492188 L 76.753906 123.492188 C 76.667969 123.492188 76.628906 123.453125 76.628906 123.367188 L 76.628906 122.851562 C 76.628906 122.765625 76.667969 122.726562 76.753906 122.726562 Z M 76.753906 122.726562 " fill-opacity="1" fill-rule="nonzero"/><path fill="#3f3d56" d="M 79.3125 122.726562 L 80.339844 122.726562 C 80.425781 122.726562 80.464844 122.765625 80.464844 122.851562 L 80.464844 123.367188 C 80.464844 123.453125 80.425781 123.492188 80.339844 123.492188 L 79.3125 123.492188 C 79.226562 123.492188 79.1875 123.453125 79.1875 123.367188 L 79.1875 122.851562 C 79.1875 122.765625 79.226562 122.726562 79.3125 122.726562 Z M 79.3125 122.726562 " fill-opacity="1" fill-rule="nonzero"/><path fill="#3f3d56" d="M 81.871094 122.726562 L 82.898438 122.726562 C 82.984375 122.726562 83.023438 122.765625 83.023438 122.851562 L 83.023438 123.367188 C 83.023438 123.453125 82.984375 123.492188 82.898438 123.492188 L 81.871094 123.492188 C 81.785156 123.492188 81.746094 123.453125 81.746094 123.367188 L 81.746094 122.851562 C 81.746094 122.765625 81.785156 122.726562 81.871094 122.726562 Z M 81.871094 122.726562 " fill-opacity="1" fill-rule="nonzero"/><path fill="#3f3d56" d="M 84.429688 122.726562 L 85.457031 122.726562 C 85.542969 122.726562 85.582031 122.765625 85.582031 122.851562 L 85.582031 123.367188 C 85.582031 123.453125 85.542969 123.492188 85.457031 123.492188 L 84.429688 123.492188 C 84.34375 123.492188 84.304688 123.453125 84.304688 123.367188 L 84.304688 122.851562 C 84.304688 122.765625 84.34375 122.726562 84.429688 122.726562 Z M 84.429688 122.726562 " fill-opacity="1" fill-rule="nonzero"/><path fill="#3f3d56" d="M 86.988281 122.726562 L 88.015625 122.726562 C 88.101562 122.726562 88.140625 122.765625 88.140625 122.851562 L 88.140625 123.367188 C 88.140625 123.453125 88.101562 123.492188 88.015625 123.492188 L 86.988281 123.492188 C 86.902344 123.492188 86.863281 123.453125 86.863281 123.367188 L 86.863281 122.851562 C 86.863281 122.765625 86.902344 122.726562 86.988281 122.726562 Z M 86.988281 122.726562 " fill-opacity="1" fill-rule="nonzero"/><path fill="#3f3d56" d="M 89.546875 122.726562 L 90.574219 122.726562 C 90.660156 122.726562 90.699219 122.765625 90.699219 122.851562 L 90.699219 123.367188 C 90.699219 123.453125 90.660156 123.492188 90.574219 123.492188 L 89.546875 123.492188 C 89.460938 123.492188 89.421875 123.453125 89.421875 123.367188 L 89.421875 122.851562 C 89.421875 122.765625 89.460938 122.726562 89.546875 122.726562 Z M 89.546875 122.726562 " fill-opacity="1" fill-rule="nonzero"/><path fill="#3f3d56" d="M 92.105469 122.726562 L 93.132812 122.726562 C 93.21875 122.726562 93.257812 122.765625 93.257812 122.851562 L 93.257812 123.367188 C 93.257812 123.453125 93.21875 123.492188 93.132812 123.492188 L 92.105469 123.492188 C 92.019531 123.492188 91.980469 123.453125 91.980469 123.367188 L 91.980469 122.851562 C 91.980469 122.765625 92.019531 122.726562 92.105469 122.726562 Z M 92.105469 122.726562 " fill-opacity="1" fill-rule="nonzero"/><path fill="#3f3d56" d="M 94.664062 122.726562 L 95.691406 122.726562 C 95.777344 122.726562 95.816406 122.765625 95.816406 122.851562 L 95.816406 123.367188 C 95.816406 123.453125 95.777344 123.492188 95.691406 123.492188 L 94.664062 123.492188 C 94.578125 123.492188 94.539062 123.453125 94.539062 123.367188 L 94.539062 122.851562 C 94.539062 122.765625 94.578125 122.726562 94.664062 122.726562 Z M 94.664062 122.726562 " fill-opacity="1" fill-rule="nonzero"/><path fill="#3f3d56" d="M 56.253906 124.003906 L 57.28125 124.003906 C 57.367188 124.003906 57.40625 124.046875 57.40625 124.128906 L 57.40625 124.648438 C 57.40625 124.730469 57.367188 124.773438 57.28125 124.773438 L 56.253906 124.773438 C 56.171875 124.773438 56.128906 124.730469 56.128906 124.648438 L 56.128906 124.128906 C 56.128906 124.046875 56.171875 124.003906 56.253906 124.003906 Z M 56.253906 124.003906 " fill-opacity="1" fill-rule="nonzero"/><path fill="#3f3d56" d="M 58.8125 124.003906 L 59.839844 124.003906 C 59.925781 124.003906 59.964844 124.046875 59.964844 124.128906 L 59.964844 124.648438 C 59.964844 124.730469 59.925781 124.773438 59.839844 124.773438 L 58.8125 124.773438 C 58.730469 124.773438 58.6875 124.730469 58.6875 124.648438 L 58.6875 124.128906 C 58.6875 124.046875 58.730469 124.003906 58.8125 124.003906 Z M 58.8125 124.003906 " fill-opacity="1" fill-rule="nonzero"/><path fill="#3f3d56" d="M 61.371094 124.003906 L 62.398438 124.003906 C 62.484375 124.003906 62.523438 124.046875 62.523438 124.128906 L 62.523438 124.648438 C 62.523438 124.730469 62.484375 124.773438 62.398438 124.773438 L 61.371094 124.773438 C 61.289062 124.773438 61.246094 124.730469 61.246094 124.648438 L 61.246094 124.128906 C 61.246094 124.046875 61.289062 124.003906 61.371094 124.003906 Z M 61.371094 124.003906 " fill-opacity="1" fill-rule="nonzero"/><path fill="#3f3d56" d="M 63.929688 124.003906 L 64.957031 124.003906 C 65.042969 124.003906 65.082031 124.046875 65.082031 124.128906 L 65.082031 124.648438 C 65.082031 124.730469 65.042969 124.773438 64.957031 124.773438 L 63.929688 124.773438 C 63.847656 124.773438 63.804688 124.730469 63.804688 124.648438 L 63.804688 124.128906 C 63.804688 124.046875 63.847656 124.003906 63.929688 124.003906 Z M 63.929688 124.003906 " fill-opacity="1" fill-rule="nonzero"/><path fill="#3f3d56" d="M 66.488281 124.003906 L 67.515625 124.003906 C 67.601562 124.003906 67.640625 124.046875 67.640625 124.128906 L 67.640625 124.648438 C 67.640625 124.730469 67.601562 124.773438 67.515625 124.773438 L 66.488281 124.773438 C 66.40625 124.773438 66.363281 124.730469 66.363281 124.648438 L 66.363281 124.128906 C 66.363281 124.046875 66.40625 124.003906 66.488281 124.003906 Z M 66.488281 124.003906 " fill-opacity="1" fill-rule="nonzero"/><path fill="#3f3d56" d="M 69.046875 124.003906 L 70.074219 124.003906 C 70.160156 124.003906 70.199219 124.046875 70.199219 124.128906 L 70.199219 124.648438 C 70.199219 124.730469 70.160156 124.773438 70.074219 124.773438 L 69.046875 124.773438 C 68.964844 124.773438 68.921875 124.730469 68.921875 124.648438 L 68.921875 124.128906 C 68.921875 124.046875 68.964844 124.003906 69.046875 124.003906 Z M 69.046875 124.003906 " fill-opacity="1" fill-rule="nonzero"/><path fill="#3f3d56" d="M 71.605469 124.003906 L 72.632812 124.003906 C 72.71875 124.003906 72.757812 124.046875 72.757812 124.128906 L 72.757812 124.648438 C 72.757812 124.730469 72.71875 124.773438 72.632812 124.773438 L 71.605469 124.773438 C 71.523438 124.773438 71.480469 124.730469 71.480469 124.648438 L 71.480469 124.128906 C 71.480469 124.046875 71.523438 124.003906 71.605469 124.003906 Z M 71.605469 124.003906 " fill-opacity="1" fill-rule="nonzero"/><path fill="#3f3d56" d="M 74.164062 124.003906 L 75.195312 124.003906 C 75.277344 124.003906 75.316406 124.046875 75.316406 124.128906 L 75.316406 124.648438 C 75.316406 124.730469 75.277344 124.773438 75.195312 124.773438 L 74.164062 124.773438 C 74.082031 124.773438 74.039062 124.730469 74.039062 124.648438 L 74.039062 124.128906 C 74.039062 124.046875 74.082031 124.003906 74.164062 124.003906 Z M 74.164062 124.003906 " fill-opacity="1" fill-rule="nonzero"/><path fill="#3f3d56" d="M 76.722656 124.003906 L 77.753906 124.003906 C 77.835938 124.003906 77.875 124.046875 77.875 124.128906 L 77.875 124.648438 C 77.875 124.730469 77.835938 124.773438 77.753906 124.773438 L 76.722656 124.773438 C 76.640625 124.773438 76.597656 124.730469 76.597656 124.648438 L 76.597656 124.128906 C 76.597656 124.046875 76.640625 124.003906 76.722656 124.003906 Z M 76.722656 124.003906 " fill-opacity="1" fill-rule="nonzero"/><path fill="#3f3d56" d="M 79.28125 124.003906 L 80.3125 124.003906 C 80.394531 124.003906 80.433594 124.046875 80.433594 124.128906 L 80.433594 124.648438 C 80.433594 124.730469 80.394531 124.773438 80.3125 124.773438 L 79.28125 124.773438 C 79.199219 124.773438 79.15625 124.730469 79.15625 124.648438 L 79.15625 124.128906 C 79.15625 124.046875 79.199219 124.003906 79.28125 124.003906 Z M 79.28125 124.003906 " fill-opacity="1" fill-rule="nonzero"/><path fill="#3f3d56" d="M 81.839844 124.003906 L 82.871094 124.003906 C 82.953125 124.003906 82.996094 124.046875 82.996094 124.128906 L 82.996094 124.648438 C 82.996094 124.730469 82.953125 124.773438 82.871094 124.773438 L 81.839844 124.773438 C 81.757812 124.773438 81.714844 124.730469 81.714844 124.648438 L 81.714844 124.128906 C 81.714844 124.046875 81.757812 124.003906 81.839844 124.003906 Z M 81.839844 124.003906 " fill-opacity="1" fill-rule="nonzero"/><path fill="#3f3d56" d="M 84.398438 124.003906 L 85.429688 124.003906 C 85.511719 124.003906 85.554688 124.046875 85.554688 124.128906 L 85.554688 124.648438 C 85.554688 124.730469 85.511719 124.773438 85.429688 124.773438 L 84.398438 124.773438 C 84.316406 124.773438 84.273438 124.730469 84.273438 124.648438 L 84.273438 124.128906 C 84.273438 124.046875 84.316406 124.003906 84.398438 124.003906 Z M 84.398438 124.003906 " fill-opacity="1" fill-rule="nonzero"/><path fill="#3f3d56" d="M 86.957031 124.003906 L 87.988281 124.003906 C 88.070312 124.003906 88.113281 124.046875 88.113281 124.128906 L 88.113281 124.648438 C 88.113281 124.730469 88.070312 124.773438 87.988281 124.773438 L 86.957031 124.773438 C 86.875 124.773438 86.832031 124.730469 86.832031 124.648438 L 86.832031 124.128906 C 86.832031 124.046875 86.875 124.003906 86.957031 124.003906 Z M 86.957031 124.003906 " fill-opacity="1" fill-rule="nonzero"/><path fill="#3f3d56" d="M 89.515625 124.003906 L 90.546875 124.003906 C 90.628906 124.003906 90.671875 124.046875 90.671875 124.128906 L 90.671875 124.648438 C 90.671875 124.730469 90.628906 124.773438 90.546875 124.773438 L 89.515625 124.773438 C 89.433594 124.773438 89.390625 124.730469 89.390625 124.648438 L 89.390625 124.128906 C 89.390625 124.046875 89.433594 124.003906 89.515625 124.003906 Z M 89.515625 124.003906 " fill-opacity="1" fill-rule="nonzero"/><path fill="#3f3d56" d="M 92.074219 124.003906 L 93.105469 124.003906 C 93.1875 124.003906 93.230469 124.046875 93.230469 124.128906 L 93.230469 124.648438 C 93.230469 124.730469 93.1875 124.773438 93.105469 124.773438 L 92.074219 124.773438 C 91.992188 124.773438 91.949219 124.730469 91.949219 124.648438 L 91.949219 124.128906 C 91.949219 124.046875 91.992188 124.003906 92.074219 124.003906 Z M 92.074219 124.003906 " fill-opacity="1" fill-rule="nonzero"/><path fill="#3f3d56" d="M 94.632812 124.003906 L 95.664062 124.003906 C 95.746094 124.003906 95.789062 124.046875 95.789062 124.128906 L 95.789062 124.648438 C 95.789062 124.730469 95.746094 124.773438 95.664062 124.773438 L 94.632812 124.773438 C 94.550781 124.773438 94.507812 124.730469 94.507812 124.648438 L 94.507812 124.128906 C 94.507812 124.046875 94.550781 124.003906 94.632812 124.003906 Z M 94.632812 124.003906 " fill-opacity="1" fill-rule="nonzero"/><path fill="#3f3d56" d="M 68.535156 125.539062 L 78.519531 125.539062 C 78.601562 125.539062 78.644531 125.582031 78.644531 125.664062 L 78.644531 126.183594 C 78.644531 126.265625 78.601562 126.308594 78.519531 126.308594 L 68.535156 126.308594 C 68.453125 126.308594 68.410156 126.265625 68.410156 126.183594 L 68.410156 125.664062 C 68.410156 125.582031 68.453125 125.539062 68.535156 125.539062 Z M 68.535156 125.539062 " fill-opacity="1" fill-rule="nonzero"/><path fill="#3f3d56" d="M 106.847656 63.699219 L 41.519531 63.699219 C 41.347656 63.695312 41.265625 63.609375 41.265625 63.4375 C 41.265625 63.269531 41.347656 63.183594 41.519531 63.179688 L 106.847656 63.179688 C 107.015625 63.183594 107.101562 63.269531 107.101562 63.4375 C 107.101562 63.609375 107.015625 63.695312 106.847656 63.699219 Z M 106.847656 63.699219 " fill-opacity="1" fill-rule="nonzero"/><path fill="#3f3d56" d="M 47.488281 60.296875 C 47.488281 60.503906 47.449219 60.699219 47.371094 60.890625 C 47.292969 61.082031 47.183594 61.25 47.042969 61.394531 C 46.898438 61.542969 46.734375 61.65625 46.546875 61.734375 C 46.363281 61.8125 46.167969 61.851562 45.964844 61.851562 C 45.761719 61.851562 45.570312 61.8125 45.382812 61.734375 C 45.195312 61.65625 45.03125 61.542969 44.890625 61.394531 C 44.746094 61.25 44.636719 61.082031 44.558594 60.890625 C 44.480469 60.699219 44.441406 60.503906 44.441406 60.296875 C 44.441406 60.089844 44.480469 59.890625 44.558594 59.699219 C 44.636719 59.507812 44.746094 59.339844 44.890625 59.195312 C 45.03125 59.046875 45.195312 58.9375 45.382812 58.855469 C 45.570312 58.777344 45.761719 58.738281 45.964844 58.738281 C 46.167969 58.738281 46.363281 58.777344 46.546875 58.855469 C 46.734375 58.9375 46.898438 59.046875 47.042969 59.195312 C 47.183594 59.339844 47.292969 59.507812 47.371094 59.699219 C 47.449219 59.890625 47.488281 60.089844 47.488281 60.296875 Z M 47.488281 60.296875 " fill-opacity="1" fill-rule="nonzero"/><path fill="#3f3d56" d="M 52.746094 60.296875 C 52.746094 60.503906 52.707031 60.699219 52.632812 60.890625 C 52.554688 61.082031 52.445312 61.25 52.300781 61.394531 C 52.160156 61.542969 51.992188 61.65625 51.808594 61.734375 C 51.621094 61.8125 51.425781 61.851562 51.226562 61.851562 C 51.023438 61.851562 50.828125 61.8125 50.640625 61.734375 C 50.457031 61.65625 50.292969 61.542969 50.148438 61.394531 C 50.003906 61.25 49.894531 61.082031 49.820312 60.890625 C 49.742188 60.699219 49.703125 60.503906 49.703125 60.296875 C 49.703125 60.089844 49.742188 59.890625 49.820312 59.699219 C 49.894531 59.507812 50.003906 59.339844 50.148438 59.195312 C 50.292969 59.046875 50.457031 58.9375 50.640625 58.855469 C 50.828125 58.777344 51.023438 58.738281 51.226562 58.738281 C 51.425781 58.738281 51.621094 58.777344 51.808594 58.855469 C 51.992188 58.9375 52.160156 59.046875 52.300781 59.195312 C 52.445312 59.339844 52.554688 59.507812 52.632812 59.699219 C 52.707031 59.890625 52.746094 60.089844 52.746094 60.296875 Z M 52.746094 60.296875 " fill-opacity="1" fill-rule="nonzero"/><path fill="#3f3d56" d="M 58.007812 60.296875 C 58.007812 60.503906 57.96875 60.699219 57.890625 60.890625 C 57.8125 61.082031 57.703125 61.25 57.5625 61.394531 C 57.417969 61.542969 57.253906 61.65625 57.066406 61.734375 C 56.878906 61.8125 56.6875 61.851562 56.484375 61.851562 C 56.28125 61.851562 56.089844 61.8125 55.902344 61.734375 C 55.714844 61.65625 55.550781 61.542969 55.40625 61.394531 C 55.265625 61.25 55.15625 61.082031 55.078125 60.890625 C 55 60.699219 54.960938 60.503906 54.960938 60.296875 C 54.960938 60.089844 55 59.890625 55.078125 59.699219 C 55.15625 59.507812 55.265625 59.339844 55.40625 59.195312 C 55.550781 59.046875 55.714844 58.9375 55.902344 58.855469 C 56.089844 58.777344 56.28125 58.738281 56.484375 58.738281 C 56.6875 58.738281 56.878906 58.777344 57.066406 58.855469 C 57.253906 58.9375 57.417969 59.046875 57.5625 59.195312 C 57.703125 59.339844 57.8125 59.507812 57.890625 59.699219 C 57.96875 59.890625 58.007812 60.089844 58.007812 60.296875 Z M 58.007812 60.296875 " fill-opacity="1" fill-rule="nonzero"/><path fill="#3f3d56" d="M 103.679688 59.125 L 99.945312 59.125 C 99.867188 59.125 99.800781 59.152344 99.75 59.207031 C 99.695312 59.265625 99.667969 59.328125 99.667969 59.40625 C 99.667969 59.484375 99.695312 59.550781 99.75 59.605469 C 99.800781 59.660156 99.867188 59.6875 99.945312 59.6875 L 103.679688 59.6875 C 103.757812 59.6875 103.824219 59.660156 103.875 59.605469 C 103.929688 59.550781 103.957031 59.484375 103.957031 59.40625 C 103.957031 59.328125 103.929688 59.261719 103.875 59.207031 C 103.824219 59.152344 103.757812 59.125 103.679688 59.125 Z M 103.679688 59.125 " fill-opacity="1" fill-rule="nonzero"/><path fill="#3f3d56" d="M 103.679688 60.1875 L 99.945312 60.1875 C 99.867188 60.1875 99.800781 60.214844 99.75 60.269531 C 99.695312 60.324219 99.667969 60.390625 99.667969 60.46875 C 99.667969 60.546875 99.695312 60.613281 99.75 60.667969 C 99.800781 60.722656 99.867188 60.75 99.945312 60.75 L 103.679688 60.75 C 103.757812 60.75 103.824219 60.722656 103.878906 60.667969 C 103.933594 60.613281 103.957031 60.546875 103.957031 60.46875 C 103.957031 60.390625 103.933594 60.324219 103.878906 60.269531 C 103.824219 60.214844 103.757812 60.1875 103.679688 60.1875 Z M 103.679688 60.1875 " fill-opacity="1" fill-rule="nonzero"/><path fill="#3f3d56" d="M 103.679688 61.246094 L 99.945312 61.246094 C 99.867188 61.25 99.800781 61.277344 99.75 61.332031 C 99.695312 61.386719 99.667969 61.453125 99.667969 61.53125 C 99.667969 61.609375 99.695312 61.671875 99.75 61.726562 C 99.800781 61.785156 99.867188 61.8125 99.945312 61.8125 L 103.679688 61.8125 C 103.757812 61.8125 103.824219 61.785156 103.875 61.730469 C 103.929688 61.675781 103.957031 61.609375 103.957031 61.53125 C 103.957031 61.453125 103.929688 61.386719 103.875 61.332031 C 103.824219 61.277344 103.757812 61.25 103.679688 61.246094 Z M 103.679688 61.246094 " fill-opacity="1" fill-rule="nonzero"/><path fill="#e6e6e6" d="M 45.808594 69.738281 L 47.152344 69.738281 C 47.355469 69.738281 47.527344 69.808594 47.671875 69.953125 C 47.816406 70.097656 47.886719 70.273438 47.886719 70.476562 C 47.886719 70.679688 47.816406 70.851562 47.671875 70.996094 C 47.527344 71.140625 47.355469 71.210938 47.152344 71.210938 L 45.808594 71.210938 C 45.605469 71.210938 45.433594 71.140625 45.289062 70.996094 C 45.144531 70.851562 45.070312 70.679688 45.070312 70.476562 C 45.070312 70.273438 45.144531 70.097656 45.289062 69.953125 C 45.433594 69.808594 45.605469 69.738281 45.808594 69.738281 Z M 45.808594 69.738281 " fill-opacity="1" fill-rule="nonzero"/><path fill="#e6e6e6" d="M 61.160156 69.738281 L 62.503906 69.738281 C 62.707031 69.738281 62.878906 69.808594 63.023438 69.953125 C 63.167969 70.097656 63.238281 70.273438 63.238281 70.476562 C 63.238281 70.679688 63.167969 70.851562 63.023438 70.996094 C 62.878906 71.140625 62.707031 71.210938 62.503906 71.210938 L 61.160156 71.210938 C 60.957031 71.210938 60.785156 71.140625 60.640625 70.996094 C 60.496094 70.851562 60.425781 70.679688 60.425781 70.476562 C 60.425781 70.273438 60.496094 70.097656 60.640625 69.953125 C 60.785156 69.808594 60.957031 69.738281 61.160156 69.738281 Z M 61.160156 69.738281 " fill-opacity="1" fill-rule="nonzero"/><path fill="#e6e6e6" d="M 65.511719 69.738281 L 66.851562 69.738281 C 67.054688 69.738281 67.230469 69.808594 67.375 69.953125 C 67.519531 70.097656 67.589844 70.273438 67.589844 70.476562 C 67.589844 70.679688 67.519531 70.851562 67.375 70.996094 C 67.230469 71.140625 67.054688 71.210938 66.851562 71.210938 L 65.511719 71.210938 C 65.308594 71.210938 65.132812 71.140625 64.988281 70.996094 C 64.84375 70.851562 64.773438 70.679688 64.773438 70.476562 C 64.773438 70.273438 64.84375 70.097656 64.988281 69.953125 C 65.132812 69.808594 65.308594 69.738281 65.511719 69.738281 Z M 65.511719 69.738281 " fill-opacity="1" fill-rule="nonzero"/><path fill="#e6e6e6" d="M 49.984375 69.617188 L 58.328125 69.617188 C 58.53125 69.617188 58.703125 69.6875 58.847656 69.832031 C 58.992188 69.976562 59.0625 70.148438 59.0625 70.351562 C 59.0625 70.554688 58.992188 70.730469 58.847656 70.875 C 58.703125 71.019531 58.53125 71.089844 58.328125 71.089844 L 49.984375 71.089844 C 49.78125 71.089844 49.609375 71.019531 49.464844 70.875 C 49.320312 70.730469 49.246094 70.554688 49.246094 70.351562 C 49.246094 70.148438 49.320312 69.976562 49.464844 69.832031 C 49.609375 69.6875 49.78125 69.617188 49.984375 69.617188 Z M 49.984375 69.617188 " fill-opacity="1" fill-rule="nonzero"/><path fill="#e6e6e6" d="M 70.453125 69.617188 L 78.796875 69.617188 C 79 69.617188 79.175781 69.6875 79.316406 69.832031 C 79.460938 69.976562 79.535156 70.148438 79.535156 70.351562 C 79.535156 70.554688 79.460938 70.730469 79.316406 70.875 C 79.175781 71.019531 79 71.089844 78.796875 71.089844 L 70.453125 71.089844 C 70.25 71.089844 70.078125 71.019531 69.933594 70.875 C 69.789062 70.730469 69.71875 70.554688 69.71875 70.351562 C 69.71875 70.148438 69.789062 69.976562 69.933594 69.832031 C 70.078125 69.6875 70.25 69.617188 70.453125 69.617188 Z M 70.453125 69.617188 " fill-opacity="1" fill-rule="nonzero"/><path fill="#e6e6e6" d="M 49.902344 73.066406 L 51.246094 73.066406 C 51.449219 73.066406 51.621094 73.136719 51.765625 73.28125 C 51.910156 73.425781 51.980469 73.597656 51.980469 73.804688 C 51.980469 74.007812 51.910156 74.179688 51.765625 74.324219 C 51.621094 74.46875 51.449219 74.539062 51.246094 74.539062 L 49.902344 74.539062 C 49.699219 74.539062 49.527344 74.46875 49.382812 74.324219 C 49.238281 74.179688 49.164062 74.007812 49.164062 73.804688 C 49.164062 73.597656 49.238281 73.425781 49.382812 73.28125 C 49.527344 73.136719 49.699219 73.066406 49.902344 73.066406 Z M 49.902344 73.066406 " fill-opacity="1" fill-rule="nonzero"/><path fill="#e6e6e6" d="M 65.253906 73.066406 L 66.597656 73.066406 C 66.800781 73.066406 66.972656 73.136719 67.117188 73.28125 C 67.261719 73.425781 67.332031 73.597656 67.332031 73.804688 C 67.332031 74.007812 67.261719 74.179688 67.117188 74.324219 C 66.972656 74.46875 66.800781 74.539062 66.597656 74.539062 L 65.253906 74.539062 C 65.050781 74.539062 64.878906 74.46875 64.734375 74.324219 C 64.589844 74.179688 64.519531 74.007812 64.519531 73.804688 C 64.519531 73.597656 64.589844 73.425781 64.734375 73.28125 C 64.878906 73.136719 65.050781 73.066406 65.253906 73.066406 Z M 65.253906 73.066406 " fill-opacity="1" fill-rule="nonzero"/><path fill="#e6e6e6" d="M 69.605469 73.066406 L 70.945312 73.066406 C 71.148438 73.066406 71.324219 73.136719 71.46875 73.28125 C 71.613281 73.425781 71.683594 73.597656 71.683594 73.804688 C 71.683594 74.007812 71.613281 74.179688 71.46875 74.324219 C 71.324219 74.46875 71.148438 74.539062 70.945312 74.539062 L 69.605469 74.539062 C 69.402344 74.539062 69.226562 74.46875 69.082031 74.324219 C 68.941406 74.179688 68.867188 74.007812 68.867188 73.804688 C 68.867188 73.597656 68.941406 73.425781 69.082031 73.28125 C 69.226562 73.136719 69.402344 73.066406 69.605469 73.066406 Z M 69.605469 73.066406 " fill-opacity="1" fill-rule="nonzero"/><path fill="#e6e6e6" d="M 54.078125 72.941406 L 62.421875 72.941406 C 62.625 72.941406 62.796875 73.015625 62.941406 73.160156 C 63.085938 73.300781 63.160156 73.476562 63.160156 73.679688 C 63.160156 73.882812 63.085938 74.058594 62.941406 74.203125 C 62.796875 74.34375 62.625 74.417969 62.421875 74.417969 L 54.078125 74.417969 C 53.875 74.417969 53.703125 74.34375 53.558594 74.203125 C 53.414062 74.058594 53.339844 73.882812 53.339844 73.679688 C 53.339844 73.476562 53.414062 73.300781 53.558594 73.160156 C 53.703125 73.015625 53.875 72.941406 54.078125 72.941406 Z M 54.078125 72.941406 " fill-opacity="1" fill-rule="nonzero"/><path fill="#e6e6e6" d="M 74.546875 72.941406 L 82.890625 72.941406 C 83.09375 72.941406 83.269531 73.015625 83.410156 73.160156 C 83.554688 73.300781 83.628906 73.476562 83.628906 73.679688 C 83.628906 73.882812 83.554688 74.058594 83.410156 74.203125 C 83.269531 74.34375 83.09375 74.417969 82.890625 74.417969 L 74.546875 74.417969 C 74.34375 74.417969 74.171875 74.34375 74.027344 74.203125 C 73.882812 74.058594 73.8125 73.882812 73.8125 73.679688 C 73.8125 73.476562 73.882812 73.300781 74.027344 73.160156 C 74.171875 73.015625 74.34375 72.941406 74.546875 72.941406 Z M 74.546875 72.941406 " fill-opacity="1" fill-rule="nonzero"/><path fill="#e6e6e6" d="M 53.996094 76.394531 L 55.339844 76.394531 C 55.542969 76.394531 55.714844 76.464844 55.859375 76.609375 C 56.003906 76.753906 56.074219 76.925781 56.074219 77.128906 C 56.074219 77.332031 56.003906 77.507812 55.859375 77.652344 C 55.714844 77.796875 55.542969 77.867188 55.339844 77.867188 L 53.996094 77.867188 C 53.792969 77.867188 53.621094 77.796875 53.476562 77.652344 C 53.332031 77.507812 53.261719 77.332031 53.261719 77.128906 C 53.261719 76.925781 53.332031 76.753906 53.476562 76.609375 C 53.621094 76.464844 53.792969 76.394531 53.996094 76.394531 Z M 53.996094 76.394531 " fill-opacity="1" fill-rule="nonzero"/><path fill="#e6e6e6" d="M 69.347656 76.394531 L 70.691406 76.394531 C 70.894531 76.394531 71.066406 76.464844 71.210938 76.609375 C 71.355469 76.753906 71.429688 76.925781 71.429688 77.128906 C 71.429688 77.332031 71.355469 77.507812 71.210938 77.652344 C 71.066406 77.796875 70.894531 77.867188 70.691406 77.867188 L 69.347656 77.867188 C 69.144531 77.867188 68.972656 77.796875 68.828125 77.652344 C 68.683594 77.507812 68.613281 77.332031 68.613281 77.128906 C 68.613281 76.925781 68.683594 76.753906 68.828125 76.609375 C 68.972656 76.464844 69.144531 76.394531 69.347656 76.394531 Z M 69.347656 76.394531 " fill-opacity="1" fill-rule="nonzero"/><path fill="#e6e6e6" d="M 73.699219 76.394531 L 75.039062 76.394531 C 75.242188 76.394531 75.417969 76.464844 75.5625 76.609375 C 75.707031 76.753906 75.777344 76.925781 75.777344 77.128906 C 75.777344 77.332031 75.707031 77.507812 75.5625 77.652344 C 75.417969 77.796875 75.242188 77.867188 75.039062 77.867188 L 73.699219 77.867188 C 73.496094 77.867188 73.320312 77.796875 73.175781 77.652344 C 73.035156 77.507812 72.960938 77.332031 72.960938 77.128906 C 72.960938 76.925781 73.035156 76.753906 73.175781 76.609375 C 73.320312 76.464844 73.496094 76.394531 73.699219 76.394531 Z M 73.699219 76.394531 " fill-opacity="1" fill-rule="nonzero"/><path fill="#e6e6e6" d="M 58.171875 76.269531 L 66.515625 76.269531 C 66.71875 76.269531 66.890625 76.34375 67.035156 76.484375 C 67.179688 76.628906 67.253906 76.804688 67.253906 77.007812 C 67.253906 77.210938 67.179688 77.382812 67.035156 77.527344 C 66.890625 77.671875 66.71875 77.746094 66.515625 77.746094 L 58.171875 77.746094 C 57.96875 77.746094 57.796875 77.671875 57.652344 77.527344 C 57.507812 77.382812 57.433594 77.210938 57.433594 77.007812 C 57.433594 76.804688 57.507812 76.628906 57.652344 76.484375 C 57.796875 76.34375 57.96875 76.269531 58.171875 76.269531 Z M 58.171875 76.269531 " fill-opacity="1" fill-rule="nonzero"/><path fill="#e6e6e6" d="M 78.640625 76.269531 L 86.984375 76.269531 C 87.1875 76.269531 87.363281 76.34375 87.503906 76.484375 C 87.648438 76.628906 87.722656 76.804688 87.722656 77.007812 C 87.722656 77.210938 87.648438 77.382812 87.503906 77.527344 C 87.363281 77.671875 87.1875 77.746094 86.984375 77.746094 L 78.640625 77.746094 C 78.4375 77.746094 78.265625 77.671875 78.121094 77.527344 C 77.976562 77.382812 77.90625 77.210938 77.90625 77.007812 C 77.90625 76.804688 77.976562 76.628906 78.121094 76.484375 C 78.265625 76.34375 78.4375 76.269531 78.640625 76.269531 Z M 78.640625 76.269531 " fill-opacity="1" fill-rule="nonzero"/><path fill="#e6e6e6" d="M 58.089844 79.71875 L 59.433594 79.71875 C 59.636719 79.71875 59.808594 79.792969 59.953125 79.9375 C 60.097656 80.082031 60.167969 80.253906 60.167969 80.457031 C 60.167969 80.660156 60.097656 80.835938 59.953125 80.980469 C 59.808594 81.121094 59.636719 81.195312 59.433594 81.195312 L 58.089844 81.195312 C 57.886719 81.195312 57.714844 81.121094 57.570312 80.980469 C 57.425781 80.835938 57.355469 80.660156 57.355469 80.457031 C 57.355469 80.253906 57.425781 80.082031 57.570312 79.9375 C 57.714844 79.792969 57.886719 79.71875 58.089844 79.71875 Z M 58.089844 79.71875 " fill-opacity="1" fill-rule="nonzero"/><path fill="#e6e6e6" d="M 73.441406 79.71875 L 74.785156 79.71875 C 74.988281 79.71875 75.160156 79.792969 75.304688 79.9375 C 75.449219 80.082031 75.523438 80.253906 75.523438 80.457031 C 75.523438 80.660156 75.449219 80.835938 75.304688 80.980469 C 75.160156 81.121094 74.988281 81.195312 74.785156 81.195312 L 73.441406 81.195312 C 73.238281 81.195312 73.066406 81.121094 72.921875 80.980469 C 72.777344 80.835938 72.707031 80.660156 72.707031 80.457031 C 72.707031 80.253906 72.777344 80.082031 72.921875 79.9375 C 73.066406 79.792969 73.238281 79.71875 73.441406 79.71875 Z M 73.441406 79.71875 " fill-opacity="1" fill-rule="nonzero"/><path fill="#e6e6e6" d="M 77.792969 79.71875 L 79.132812 79.71875 C 79.339844 79.71875 79.511719 79.792969 79.65625 79.9375 C 79.800781 80.082031 79.871094 80.253906 79.871094 80.457031 C 79.871094 80.660156 79.800781 80.835938 79.65625 80.980469 C 79.511719 81.121094 79.339844 81.195312 79.132812 81.195312 L 77.792969 81.195312 C 77.589844 81.195312 77.414062 81.121094 77.269531 80.980469 C 77.128906 80.835938 77.054688 80.660156 77.054688 80.457031 C 77.054688 80.253906 77.128906 80.082031 77.269531 79.9375 C 77.414062 79.792969 77.589844 79.71875 77.792969 79.71875 Z M 77.792969 79.71875 " fill-opacity="1" fill-rule="nonzero"/><path fill="#e6e6e6" d="M 62.265625 79.597656 L 70.609375 79.597656 C 70.8125 79.597656 70.984375 79.667969 71.128906 79.8125 C 71.273438 79.957031 71.347656 80.132812 71.347656 80.335938 C 71.347656 80.539062 71.273438 80.710938 71.128906 80.855469 C 70.984375 81 70.8125 81.070312 70.609375 81.070312 L 62.265625 81.070312 C 62.0625 81.070312 61.890625 81 61.746094 80.855469 C 61.601562 80.710938 61.53125 80.539062 61.53125 80.335938 C 61.53125 80.132812 61.601562 79.957031 61.746094 79.8125 C 61.890625 79.667969 62.0625 79.597656 62.265625 79.597656 Z M 62.265625 79.597656 " fill-opacity="1" fill-rule="nonzero"/><path fill="#e6e6e6" d="M 61.160156 92.953125 L 62.503906 92.953125 C 62.707031 92.953125 62.878906 93.023438 63.023438 93.167969 C 63.167969 93.3125 63.238281 93.484375 63.238281 93.6875 C 63.238281 93.890625 63.167969 94.066406 63.023438 94.210938 C 62.878906 94.351562 62.707031 94.425781 62.503906 94.425781 L 61.160156 94.425781 C 60.957031 94.425781 60.785156 94.351562 60.640625 94.210938 C 60.496094 94.066406 60.425781 93.890625 60.425781 93.6875 C 60.425781 93.484375 60.496094 93.3125 60.640625 93.167969 C 60.785156 93.023438 60.957031 92.953125 61.160156 92.953125 Z M 61.160156 92.953125 " fill-opacity="1" fill-rule="nonzero"/><path fill="#e6e6e6" d="M 65.511719 92.953125 L 66.851562 92.953125 C 67.054688 92.953125 67.230469 93.023438 67.375 93.167969 C 67.519531 93.3125 67.589844 93.484375 67.589844 93.6875 C 67.589844 93.890625 67.519531 94.066406 67.375 94.210938 C 67.230469 94.351562 67.054688 94.425781 66.851562 94.425781 L 65.511719 94.425781 C 65.308594 94.425781 65.132812 94.351562 64.988281 94.210938 C 64.84375 94.066406 64.773438 93.890625 64.773438 93.6875 C 64.773438 93.484375 64.84375 93.3125 64.988281 93.167969 C 65.132812 93.023438 65.308594 92.953125 65.511719 92.953125 Z M 65.511719 92.953125 " fill-opacity="1" fill-rule="nonzero"/><path fill="#e6e6e6" d="M 70.453125 93.074219 L 78.796875 93.074219 C 79 93.074219 79.175781 93.144531 79.316406 93.289062 C 79.460938 93.433594 79.535156 93.609375 79.535156 93.8125 C 79.535156 94.015625 79.460938 94.1875 79.316406 94.332031 C 79.175781 94.476562 79 94.546875 78.796875 94.546875 L 70.453125 94.546875 C 70.25 94.546875 70.078125 94.476562 69.933594 94.332031 C 69.789062 94.1875 69.71875 94.015625 69.71875 93.8125 C 69.71875 93.609375 69.789062 93.433594 69.933594 93.289062 C 70.078125 93.144531 70.25 93.074219 70.453125 93.074219 Z M 70.453125 93.074219 " fill-opacity="1" fill-rule="nonzero"/><path fill="#e6e6e6" d="M 45.808594 92.953125 L 47.152344 92.953125 C 47.355469 92.953125 47.527344 93.023438 47.671875 93.167969 C 47.816406 93.3125 47.886719 93.484375 47.886719 93.6875 C 47.886719 93.890625 47.816406 94.066406 47.671875 94.210938 C 47.527344 94.351562 47.355469 94.425781 47.152344 94.425781 L 45.808594 94.425781 C 45.605469 94.425781 45.433594 94.351562 45.289062 94.210938 C 45.144531 94.066406 45.070312 93.890625 45.070312 93.6875 C 45.070312 93.484375 45.144531 93.3125 45.289062 93.167969 C 45.433594 93.023438 45.605469 92.953125 45.808594 92.953125 Z M 45.808594 92.953125 " fill-opacity="1" fill-rule="nonzero"/><path fill="#e6e6e6" d="M 49.984375 93.074219 L 58.328125 93.074219 C 58.53125 93.074219 58.703125 93.144531 58.847656 93.289062 C 58.992188 93.433594 59.0625 93.609375 59.0625 93.8125 C 59.0625 94.015625 58.992188 94.1875 58.847656 94.332031 C 58.703125 94.476562 58.53125 94.546875 58.328125 94.546875 L 49.984375 94.546875 C 49.78125 94.546875 49.609375 94.476562 49.464844 94.332031 C 49.320312 94.1875 49.246094 94.015625 49.246094 93.8125 C 49.246094 93.609375 49.320312 93.433594 49.464844 93.289062 C 49.609375 93.144531 49.78125 93.074219 49.984375 93.074219 Z M 49.984375 93.074219 " fill-opacity="1" fill-rule="nonzero"/><path fill="#e6e6e6" d="M 49.902344 89.625 L 51.246094 89.625 C 51.449219 89.625 51.621094 89.695312 51.765625 89.839844 C 51.910156 89.984375 51.980469 90.15625 51.980469 90.359375 C 51.980469 90.566406 51.910156 90.738281 51.765625 90.882812 C 51.621094 91.027344 51.449219 91.097656 51.246094 91.097656 L 49.902344 91.097656 C 49.699219 91.097656 49.527344 91.027344 49.382812 90.882812 C 49.238281 90.738281 49.164062 90.566406 49.164062 90.359375 C 49.164062 90.15625 49.238281 89.984375 49.382812 89.839844 C 49.527344 89.695312 49.699219 89.625 49.902344 89.625 Z M 49.902344 89.625 " fill-opacity="1" fill-rule="nonzero"/><path fill="#e6e6e6" d="M 65.253906 89.625 L 66.597656 89.625 C 66.800781 89.625 66.972656 89.695312 67.117188 89.839844 C 67.261719 89.984375 67.332031 90.15625 67.332031 90.359375 C 67.332031 90.566406 67.261719 90.738281 67.117188 90.882812 C 66.972656 91.027344 66.800781 91.097656 66.597656 91.097656 L 65.253906 91.097656 C 65.050781 91.097656 64.878906 91.027344 64.734375 90.882812 C 64.589844 90.738281 64.519531 90.566406 64.519531 90.359375 C 64.519531 90.15625 64.589844 89.984375 64.734375 89.839844 C 64.878906 89.695312 65.050781 89.625 65.253906 89.625 Z M 65.253906 89.625 " fill-opacity="1" fill-rule="nonzero"/><path fill="#e6e6e6" d="M 69.605469 89.625 L 70.945312 89.625 C 71.148438 89.625 71.324219 89.695312 71.46875 89.839844 C 71.613281 89.984375 71.683594 90.15625 71.683594 90.359375 C 71.683594 90.566406 71.613281 90.738281 71.46875 90.882812 C 71.324219 91.027344 71.148438 91.097656 70.945312 91.097656 L 69.605469 91.097656 C 69.402344 91.097656 69.226562 91.027344 69.082031 90.882812 C 68.941406 90.738281 68.867188 90.566406 68.867188 90.359375 C 68.867188 90.15625 68.941406 89.984375 69.082031 89.839844 C 69.226562 89.695312 69.402344 89.625 69.605469 89.625 Z M 69.605469 89.625 " fill-opacity="1" fill-rule="nonzero"/><path fill="#e6e6e6" d="M 54.078125 89.746094 L 62.421875 89.746094 C 62.625 89.746094 62.796875 89.820312 62.941406 89.960938 C 63.085938 90.105469 63.160156 90.28125 63.160156 90.484375 C 63.160156 90.6875 63.085938 90.859375 62.941406 91.003906 C 62.796875 91.148438 62.625 91.222656 62.421875 91.222656 L 54.078125 91.222656 C 53.875 91.222656 53.703125 91.148438 53.558594 91.003906 C 53.414062 90.859375 53.339844 90.6875 53.339844 90.484375 C 53.339844 90.28125 53.414062 90.105469 53.558594 89.960938 C 53.703125 89.820312 53.875 89.746094 54.078125 89.746094 Z M 54.078125 89.746094 " fill-opacity="1" fill-rule="nonzero"/><path fill="#e6e6e6" d="M 53.996094 86.296875 L 55.339844 86.296875 C 55.542969 86.296875 55.714844 86.367188 55.859375 86.511719 C 56.003906 86.65625 56.074219 86.832031 56.074219 87.035156 C 56.074219 87.238281 56.003906 87.410156 55.859375 87.554688 C 55.714844 87.699219 55.542969 87.769531 55.339844 87.769531 L 53.996094 87.769531 C 53.792969 87.769531 53.621094 87.699219 53.476562 87.554688 C 53.332031 87.410156 53.261719 87.238281 53.261719 87.035156 C 53.261719 86.832031 53.332031 86.65625 53.476562 86.511719 C 53.621094 86.367188 53.792969 86.296875 53.996094 86.296875 Z M 53.996094 86.296875 " fill-opacity="1" fill-rule="nonzero"/><path fill="#e6e6e6" d="M 69.347656 86.296875 L 70.691406 86.296875 C 70.894531 86.296875 71.066406 86.367188 71.210938 86.511719 C 71.355469 86.65625 71.429688 86.832031 71.429688 87.035156 C 71.429688 87.238281 71.355469 87.410156 71.210938 87.554688 C 71.066406 87.699219 70.894531 87.769531 70.691406 87.769531 L 69.347656 87.769531 C 69.144531 87.769531 68.972656 87.699219 68.828125 87.554688 C 68.683594 87.410156 68.613281 87.238281 68.613281 87.035156 C 68.613281 86.832031 68.683594 86.65625 68.828125 86.511719 C 68.972656 86.367188 69.144531 86.296875 69.347656 86.296875 Z M 69.347656 86.296875 " fill-opacity="1" fill-rule="nonzero"/><path fill="#e6e6e6" d="M 73.699219 86.296875 L 75.039062 86.296875 C 75.242188 86.296875 75.417969 86.367188 75.5625 86.511719 C 75.707031 86.65625 75.777344 86.832031 75.777344 87.035156 C 75.777344 87.238281 75.707031 87.410156 75.5625 87.554688 C 75.417969 87.699219 75.242188 87.769531 75.039062 87.769531 L 73.699219 87.769531 C 73.496094 87.769531 73.320312 87.699219 73.175781 87.554688 C 73.035156 87.410156 72.960938 87.238281 72.960938 87.035156 C 72.960938 86.832031 73.035156 86.65625 73.175781 86.511719 C 73.320312 86.367188 73.496094 86.296875 73.699219 86.296875 Z M 73.699219 86.296875 " fill-opacity="1" fill-rule="nonzero"/><path fill="#e6e6e6" d="M 58.171875 86.417969 L 66.515625 86.417969 C 66.71875 86.417969 66.890625 86.492188 67.035156 86.636719 C 67.179688 86.78125 67.253906 86.953125 67.253906 87.15625 C 67.253906 87.359375 67.179688 87.535156 67.035156 87.679688 C 66.890625 87.820312 66.71875 87.894531 66.515625 87.894531 L 58.171875 87.894531 C 57.96875 87.894531 57.796875 87.820312 57.652344 87.679688 C 57.507812 87.535156 57.433594 87.359375 57.433594 87.15625 C 57.433594 86.953125 57.507812 86.78125 57.652344 86.636719 C 57.796875 86.492188 57.96875 86.417969 58.171875 86.417969 Z M 58.171875 86.417969 " fill-opacity="1" fill-rule="nonzero"/><path fill="#e6e6e6" d="M 58.089844 82.96875 L 59.433594 82.96875 C 59.636719 82.96875 59.808594 83.042969 59.953125 83.183594 C 60.097656 83.328125 60.167969 83.503906 60.167969 83.707031 C 60.167969 83.910156 60.097656 84.082031 59.953125 84.226562 C 59.808594 84.371094 59.636719 84.445312 59.433594 84.445312 L 58.089844 84.445312 C 57.886719 84.445312 57.714844 84.371094 57.570312 84.226562 C 57.425781 84.082031 57.355469 83.910156 57.355469 83.707031 C 57.355469 83.503906 57.425781 83.328125 57.570312 83.183594 C 57.714844 83.042969 57.886719 82.96875 58.089844 82.96875 Z M 58.089844 82.96875 " fill-opacity="1" fill-rule="nonzero"/><path fill="#e6e6e6" d="M 73.441406 82.96875 L 74.785156 82.96875 C 74.988281 82.96875 75.160156 83.042969 75.304688 83.183594 C 75.449219 83.328125 75.523438 83.503906 75.523438 83.707031 C 75.523438 83.910156 75.449219 84.082031 75.304688 84.226562 C 75.160156 84.371094 74.988281 84.445312 74.785156 84.445312 L 73.441406 84.445312 C 73.238281 84.445312 73.066406 84.371094 72.921875 84.226562 C 72.777344 84.082031 72.707031 83.910156 72.707031 83.707031 C 72.707031 83.503906 72.777344 83.328125 72.921875 83.183594 C 73.066406 83.042969 73.238281 82.96875 73.441406 82.96875 Z M 73.441406 82.96875 " fill-opacity="1" fill-rule="nonzero"/><path fill="#e6e6e6" d="M 77.792969 82.96875 L 79.132812 82.96875 C 79.339844 82.96875 79.511719 83.042969 79.65625 83.183594 C 79.800781 83.328125 79.871094 83.503906 79.871094 83.707031 C 79.871094 83.910156 79.800781 84.082031 79.65625 84.226562 C 79.511719 84.371094 79.339844 84.445312 79.132812 84.445312 L 77.792969 84.445312 C 77.589844 84.445312 77.414062 84.371094 77.269531 84.226562 C 77.128906 84.082031 77.054688 83.910156 77.054688 83.707031 C 77.054688 83.503906 77.128906 83.328125 77.269531 83.183594 C 77.414062 83.042969 77.589844 82.96875 77.792969 82.96875 Z M 77.792969 82.96875 " fill-opacity="1" fill-rule="nonzero"/><path fill="#e6e6e6" d="M 62.265625 83.09375 L 70.609375 83.09375 C 70.8125 83.09375 70.984375 83.164062 71.128906 83.308594 C 71.273438 83.453125 71.347656 83.625 71.347656 83.828125 C 71.347656 84.03125 71.273438 84.207031 71.128906 84.351562 C 70.984375 84.496094 70.8125 84.566406 70.609375 84.566406 L 62.265625 84.566406 C 62.0625 84.566406 61.890625 84.496094 61.746094 84.351562 C 61.601562 84.207031 61.53125 84.03125 61.53125 83.828125 C 61.53125 83.625 61.601562 83.453125 61.746094 83.308594 C 61.890625 83.164062 62.0625 83.09375 62.265625 83.09375 Z M 62.265625 83.09375 " fill-opacity="1" fill-rule="nonzero"/><g clip-path="url(#id2)"><path fill="#3f3d56" d="M 107.628906 141.019531 C 107.472656 141.097656 107.316406 141.175781 107.160156 141.253906 C 103.117188 143.277344 99.882812 144.425781 95.457031 145.683594 C 95.085938 141.511719 94.722656 134.179688 94.375 129.632812 C 94.28125 128.453125 94.191406 127.464844 94.101562 126.765625 C 94.078125 126.390625 94.003906 126.027344 93.875 125.675781 L 93.890625 126.765625 L 93.929688 129.632812 L 94.152344 146.042969 C 88.628906 147.503906 83.015625 148.3125 77.304688 148.472656 C 77.007812 148.480469 76.714844 148.484375 76.433594 148.488281 C 76.335938 148.492188 76.238281 148.496094 76.140625 148.496094 C 75.820312 148.496094 75.503906 148.5 75.183594 148.5 C 69.164062 148.503906 63.234375 147.785156 57.390625 146.34375 C 57.515625 142.214844 57.640625 134.964844 57.761719 129.632812 C 57.789062 128.59375 57.8125 127.621094 57.835938 126.765625 C 57.886719 124.933594 57.9375 123.613281 57.984375 123.167969 C 57.941406 123.246094 57.90625 123.332031 57.886719 123.417969 C 57.648438 124.523438 57.488281 125.636719 57.402344 126.765625 C 57.3125 127.621094 57.222656 128.59375 57.132812 129.632812 C 56.65625 135.171875 56.160156 142.699219 55.648438 145.890625 C 52.597656 145.054688 49.617188 144.03125 46.699219 142.808594 C 45.164062 142.171875 43.65625 141.480469 42.175781 140.738281 C 42.457031 138.898438 42.753906 136.832031 43.054688 134.6875 C 43.289062 133.027344 43.535156 131.320312 43.78125 129.632812 C 44.164062 127.027344 44.558594 124.472656 44.957031 122.222656 C 45.542969 118.9375 46.140625 116.296875 46.734375 115.082031 C 47.296875 113.933594 47.859375 112.796875 48.40625 111.707031 C 48.59375 111.328125 48.785156 110.949219 48.96875 110.585938 C 49.011719 110.496094 49.054688 110.414062 49.097656 110.328125 C 49.488281 109.558594 49.867188 108.820312 50.230469 108.128906 C 50.539062 107.539062 50.832031 106.980469 51.113281 106.464844 C 51.789062 105.21875 52.359375 104.222656 52.785156 103.589844 C 53.671875 102.246094 54.761719 101.082031 56.046875 100.109375 C 57.332031 99.132812 58.742188 98.398438 60.277344 97.90625 L 60.355469 97.886719 L 60.40625 97.910156 L 65.640625 96.300781 L 66.40625 96.066406 L 66.917969 95.90625 L 68.730469 94.527344 L 69.714844 93.777344 L 70.640625 93.074219 L 72.445312 91.699219 L 83.628906 92.390625 L 85.808594 97.632812 L 90.683594 99.417969 L 90.769531 99.378906 L 90.84375 99.347656 L 90.917969 99.367188 C 92.457031 99.859375 93.867188 100.59375 95.152344 101.570312 C 96.4375 102.546875 97.523438 103.707031 98.410156 105.054688 C 98.652344 105.414062 98.945312 105.890625 99.273438 106.464844 C 99.554688 106.953125 99.863281 107.511719 100.195312 108.128906 C 100.667969 109.007812 101.183594 109.996094 101.734375 111.070312 C 101.851562 111.304688 101.976562 111.546875 102.097656 111.789062 C 102.324219 112.238281 102.558594 112.699219 102.792969 113.167969 C 103.335938 114.257812 103.898438 115.394531 104.460938 116.546875 C 104.953125 117.546875 105.445312 119.605469 105.929688 122.222656 C 106.332031 124.398438 106.730469 126.964844 107.117188 129.632812 C 107.625 133.09375 107.085938 137.238281 107.542969 140.421875 C 107.570312 140.625 107.601562 140.820312 107.628906 141.019531 Z M 107.628906 141.019531 " fill-opacity="1" fill-rule="nonzero"/></g><path fill="#a0616a" d="M 88.347656 74.503906 C 88.347656 75.355469 88.265625 76.203125 88.097656 77.042969 C 87.933594 77.878906 87.683594 78.691406 87.359375 79.480469 C 87.03125 80.269531 86.628906 81.019531 86.15625 81.730469 C 85.683594 82.441406 85.144531 83.097656 84.539062 83.703125 C 83.933594 84.308594 83.277344 84.847656 82.566406 85.320312 C 81.859375 85.796875 81.109375 86.195312 80.320312 86.523438 C 79.53125 86.851562 78.714844 87.097656 77.878906 87.265625 C 77.042969 87.429688 76.195312 87.515625 75.339844 87.515625 C 74.488281 87.515625 73.640625 87.429688 72.804688 87.265625 C 71.964844 87.097656 71.152344 86.851562 70.363281 86.523438 C 69.574219 86.195312 68.824219 85.796875 68.113281 85.320312 C 67.40625 84.847656 66.746094 84.308594 66.144531 83.703125 C 65.539062 83.097656 65 82.441406 64.527344 81.730469 C 64.050781 81.019531 63.652344 80.269531 63.324219 79.480469 C 62.996094 78.691406 62.75 77.878906 62.585938 77.042969 C 62.417969 76.203125 62.335938 75.355469 62.335938 74.503906 C 62.335938 73.648438 62.417969 72.800781 62.585938 71.964844 C 62.75 71.125 62.996094 70.3125 63.324219 69.523438 C 63.652344 68.734375 64.050781 67.984375 64.527344 67.273438 C 65 66.5625 65.539062 65.90625 66.144531 65.300781 C 66.746094 64.699219 67.40625 64.160156 68.113281 63.683594 C 68.824219 63.210938 69.574219 62.808594 70.363281 62.480469 C 71.152344 62.15625 71.964844 61.910156 72.804688 61.742188 C 73.640625 61.574219 74.488281 61.492188 75.339844 61.492188 C 76.195312 61.492188 77.042969 61.574219 77.878906 61.742188 C 78.714844 61.910156 79.53125 62.15625 80.320312 62.480469 C 81.109375 62.808594 81.859375 63.210938 82.566406 63.683594 C 83.277344 64.160156 83.933594 64.699219 84.539062 65.300781 C 85.144531 65.90625 85.683594 66.5625 86.15625 67.273438 C 86.628906 67.984375 87.03125 68.734375 87.359375 69.523438 C 87.683594 70.3125 87.933594 71.125 88.097656 71.964844 C 88.265625 72.800781 88.347656 73.648438 88.347656 74.503906 Z M 88.347656 74.503906 " fill-opacity="1" fill-rule="nonzero"/><path fill="#2f2e41" d="M 96.792969 57.261719 C 96.535156 56.65625 96.195312 56.101562 95.777344 55.597656 C 93.800781 53.183594 90.207031 52.121094 86.519531 54.976562 C 85.796875 54.816406 85.085938 54.855469 84.386719 55.101562 C 84.058594 55.21875 83.757812 55.382812 83.484375 55.597656 C 82.917969 56.039062 82.496094 56.59375 82.21875 57.261719 C 82.074219 57.609375 81.980469 57.96875 81.9375 58.34375 C 81.023438 57.867188 80.066406 57.507812 79.066406 57.261719 C 76.582031 56.640625 74.097656 56.640625 71.613281 57.261719 C 70.824219 57.460938 70.074219 57.757812 69.367188 58.152344 C 68.167969 58.84375 67.480469 59.714844 67.355469 60.683594 C 65.628906 60.78125 63.832031 61.691406 62.496094 63.179688 C 62.34375 63.347656 62.199219 63.519531 62.0625 63.699219 C 60.90625 65.214844 60.332031 66.925781 60.34375 68.832031 L 60.34375 69.15625 L 60.667969 69.15625 C 61.566406 69.15625 62.433594 69.324219 63.265625 69.664062 C 63.800781 69.878906 64.304688 70.15625 64.773438 70.496094 C 65.078125 70.710938 65.367188 70.949219 65.636719 71.210938 C 66.261719 71.820312 66.785156 72.503906 67.199219 73.273438 C 67.734375 74.234375 68.085938 75.257812 68.265625 76.34375 C 68.445312 77.429688 68.4375 78.515625 68.246094 79.597656 C 68.15625 80.097656 68.027344 80.589844 67.855469 81.070312 C 67.613281 81.757812 67.296875 82.410156 66.90625 83.023438 C 66.890625 83.046875 66.878906 83.070312 66.863281 83.09375 C 66.691406 83.367188 66.527344 83.644531 66.375 83.925781 C 66.257812 84.136719 66.152344 84.351562 66.050781 84.566406 C 65.761719 85.167969 65.515625 85.785156 65.316406 86.421875 C 64.957031 87.546875 64.75 88.703125 64.691406 89.886719 C 64.671875 90.199219 64.667969 90.511719 64.679688 90.824219 C 64.691406 91.628906 64.78125 92.425781 64.941406 93.21875 C 64.964844 93.324219 64.988281 93.429688 65.011719 93.539062 L 65.199219 94.355469 L 65.640625 96.300781 L 65.945312 97.644531 L 66.230469 98.886719 L 66.652344 98.285156 C 66.792969 98.082031 67.15625 97.453125 67.636719 96.5625 C 67.957031 95.980469 68.328125 95.285156 68.730469 94.527344 C 69.292969 93.464844 69.90625 92.28125 70.507812 91.097656 C 70.75 90.621094 70.992188 90.144531 71.222656 89.679688 C 71.664062 88.796875 72.078125 87.941406 72.433594 87.183594 C 72.761719 86.488281 73.039062 85.867188 73.246094 85.371094 C 73.3125 85.695312 73.363281 86.027344 73.40625 86.359375 C 73.453125 86.695312 73.484375 87.039062 73.503906 87.382812 C 73.507812 87.433594 73.511719 87.488281 73.511719 87.539062 L 73.523438 87.75 L 73.527344 87.808594 L 73.796875 87.847656 C 75.367188 88.015625 76.933594 88.027344 78.503906 87.882812 L 78.507812 87.882812 C 80.597656 87.722656 82.605469 87.238281 84.535156 86.421875 C 85.628906 85.945312 86.636719 85.328125 87.554688 84.566406 C 87.984375 84.214844 88.378906 83.828125 88.746094 83.410156 C 88.839844 83.304688 88.929688 83.199219 89.015625 83.09375 C 89.523438 82.46875 89.953125 81.792969 90.308594 81.070312 C 90.542969 80.59375 90.742188 80.101562 90.90625 79.597656 C 91.890625 76.621094 91.832031 72.90625 90.738281 68.492188 C 91.035156 68.4375 91.316406 68.328125 91.574219 68.171875 C 92.378906 67.6875 92.9375 66.726562 93.109375 65.554688 L 93.386719 65.628906 C 94.375 65.167969 95.230469 64.523438 95.949219 63.699219 C 96.089844 63.535156 96.21875 63.359375 96.339844 63.179688 C 97.59375 61.335938 97.601562 59.125 96.792969 57.261719 Z M 96.792969 57.261719 " fill-opacity="1" fill-rule="nonzero"/><path fill="#000000" d="M 54.027344 122.214844 L 56.203125 113.820312 L 58.121094 121.0625 Z M 54.027344 122.214844 " fill-opacity="0.2" fill-rule="nonzero"/><g clip-path="url(#id3)"><path fill="#2f2e41" d="M 111.882812 116.746094 C 111.105469 127.464844 111.910156 132.183594 107.617188 141.019531 C 103.703125 142.9375 99.648438 144.492188 95.457031 145.683594 C 95.023438 145.808594 94.585938 145.925781 94.152344 146.042969 C 88.628906 147.503906 83.015625 148.3125 77.304688 148.472656 C 77.007812 148.480469 76.714844 148.484375 76.433594 148.488281 C 76.335938 148.492188 76.238281 148.496094 76.140625 148.496094 C 75.820312 148.496094 75.503906 148.5 75.183594 148.5 C 69.164062 148.503906 63.234375 147.785156 57.390625 146.34375 C 56.808594 146.199219 56.226562 146.046875 55.648438 145.890625 C 52.597656 145.054688 49.617188 144.03125 46.699219 142.808594 C 45.164062 142.171875 43.65625 141.480469 42.175781 140.738281 C 41.84375 140.570312 41.507812 140.402344 41.175781 140.226562 C 39.480469 137.242188 38.515625 133.613281 38.496094 129.253906 C 39.667969 121.738281 109.289062 110.265625 111.882812 116.746094 Z M 111.882812 116.746094 " fill-opacity="1" fill-rule="nonzero"/></g><path fill="#000000" d="M 111.878906 118.582031 C 111.921875 117.917969 111.964844 117.230469 112.015625 116.515625 C 109.421875 110.035156 39.804688 121.511719 38.628906 129.027344 C 38.632812 129.714844 38.660156 130.382812 38.710938 131.035156 C 41.554688 123.617188 107.695312 112.714844 111.878906 118.582031 Z M 111.878906 118.582031 " fill-opacity="0.2" fill-rule="nonzero"/><path fill="#2f2e41" d="M 42.96875 88.136719 C 42.988281 87.902344 42.953125 87.671875 42.871094 87.453125 C 42.792969 87.230469 42.667969 87.039062 42.503906 86.871094 C 42.335938 86.703125 42.144531 86.578125 41.921875 86.492188 C 41.703125 86.410156 41.476562 86.375 41.242188 86.390625 C 41.15625 86.394531 41.070312 86.40625 40.984375 86.421875 L 30.8125 88.722656 C 30.328125 88.839844 29.96875 89.113281 29.734375 89.550781 C 29.585938 89.554688 29.4375 89.578125 29.292969 89.613281 C 28.972656 89.6875 28.679688 89.820312 28.414062 90.007812 C 28.144531 90.199219 27.925781 90.429688 27.75 90.707031 C 27.574219 90.984375 27.460938 91.285156 27.40625 91.609375 C 27.351562 91.929688 27.359375 92.253906 27.429688 92.570312 C 27.503906 92.890625 27.632812 93.183594 27.824219 93.453125 C 28.011719 93.71875 28.246094 93.941406 28.523438 94.117188 C 28.800781 94.289062 29.097656 94.40625 29.421875 94.460938 C 29.742188 94.519531 30.066406 94.507812 30.382812 94.4375 C 30.753906 94.351562 31.085938 94.191406 31.382812 93.957031 L 34.828125 103.667969 C 35.003906 103.980469 35.257812 104.207031 35.585938 104.351562 C 35.914062 104.496094 36.253906 104.527344 36.605469 104.445312 L 43.21875 102.949219 C 43.566406 102.871094 43.855469 102.695312 44.085938 102.425781 C 44.320312 102.15625 44.449219 101.84375 44.480469 101.488281 Z M 30.230469 93.746094 C 30.003906 93.796875 29.773438 93.804688 29.542969 93.765625 C 29.3125 93.726562 29.097656 93.640625 28.898438 93.519531 C 28.703125 93.394531 28.535156 93.234375 28.398438 93.042969 C 28.265625 92.851562 28.171875 92.644531 28.117188 92.414062 C 28.066406 92.1875 28.058594 91.957031 28.097656 91.726562 C 28.136719 91.496094 28.21875 91.28125 28.34375 91.082031 C 28.46875 90.882812 28.625 90.714844 28.816406 90.582031 C 29.007812 90.445312 29.214844 90.351562 29.445312 90.296875 C 29.476562 90.289062 29.507812 90.296875 29.539062 90.289062 C 29.539062 90.589844 29.609375 90.867188 29.757812 91.125 L 31.019531 93.328125 C 30.796875 93.539062 30.535156 93.679688 30.230469 93.746094 Z M 30.230469 93.746094 " fill-opacity="1" fill-rule="nonzero"/><path fill="#3f3d56" d="M 41.242188 86.390625 C 41.339844 87.675781 39.136719 89.15625 36.1875 89.742188 C 33.480469 90.296875 31.050781 89.910156 30.367188 88.898438 C 30.507812 88.816406 30.652344 88.757812 30.8125 88.722656 L 40.984375 86.421875 C 41.070312 86.40625 41.15625 86.394531 41.242188 86.390625 Z M 41.242188 86.390625 " fill-opacity="1" fill-rule="nonzero"/><path fill="#a0616a" d="M 34.207031 119.042969 L 39.917969 116.183594 L 35.15625 103.324219 L 33.902344 96.835938 C 33.863281 96.625 33.808594 96.421875 33.742188 96.21875 C 33.671875 96.015625 33.59375 95.816406 33.5 95.625 C 33.40625 95.433594 33.300781 95.246094 33.183594 95.070312 C 33.066406 94.890625 32.9375 94.722656 32.796875 94.558594 C 32.65625 94.398438 32.507812 94.246094 32.347656 94.105469 C 32.1875 93.960938 32.019531 93.832031 31.84375 93.710938 C 31.667969 93.589844 31.484375 93.484375 31.292969 93.386719 C 31.101562 93.289062 30.90625 93.207031 30.703125 93.136719 C 30.5 93.066406 30.296875 93.011719 30.085938 92.964844 C 29.878906 92.921875 29.667969 92.894531 29.453125 92.878906 C 29.242188 92.863281 29.027344 92.859375 28.816406 92.871094 C 28.601562 92.882812 28.390625 92.910156 28.179688 92.949219 C 27.96875 92.988281 27.765625 93.042969 27.5625 93.109375 C 27.359375 93.175781 27.160156 93.253906 26.96875 93.347656 C 26.773438 93.4375 26.589844 93.542969 26.410156 93.660156 C 26.230469 93.777344 26.0625 93.90625 25.898438 94.042969 C 25.660156 94.25 25.441406 94.476562 25.246094 94.722656 C 25.050781 94.96875 24.882812 95.234375 24.734375 95.511719 C 24.589844 95.792969 24.472656 96.082031 24.386719 96.386719 C 24.296875 96.6875 24.238281 96.996094 24.207031 97.308594 C 24.179688 97.621094 24.179688 97.9375 24.210938 98.25 C 24.242188 98.5625 24.300781 98.871094 24.390625 99.171875 C 24.480469 99.476562 24.601562 99.765625 24.746094 100.042969 C 24.894531 100.324219 25.0625 100.585938 25.261719 100.832031 L 29.917969 106.65625 Z M 34.207031 119.042969 " fill-opacity="1" fill-rule="nonzero"/><path fill="#3f3d56" d="M 39.917969 113.800781 L 32.300781 117.613281 L 38.082031 135.734375 C 38.289062 136.386719 38.578125 137 38.945312 137.578125 C 39.308594 138.152344 39.742188 138.675781 40.242188 139.136719 C 40.746094 139.601562 41.296875 139.996094 41.898438 140.316406 C 42.5 140.640625 43.132812 140.878906 43.796875 141.039062 C 44.617188 141.234375 45.445312 141.296875 46.285156 141.226562 C 47.125 141.15625 47.933594 140.960938 48.707031 140.632812 C 49.484375 140.308594 50.191406 139.867188 50.824219 139.316406 C 51.460938 138.765625 51.996094 138.128906 52.429688 137.40625 L 67.761719 111.117188 C 68.03125 110.667969 68.253906 110.195312 68.433594 109.703125 C 68.609375 109.210938 68.738281 108.707031 68.820312 108.191406 C 68.898438 107.675781 68.929688 107.152344 68.910156 106.632812 C 68.886719 106.109375 68.816406 105.59375 68.695312 105.082031 C 68.578125 104.574219 68.40625 104.082031 68.191406 103.605469 C 67.976562 103.128906 67.714844 102.679688 67.410156 102.253906 C 67.109375 101.828125 66.765625 101.433594 66.386719 101.074219 C 66.007812 100.714844 65.597656 100.394531 65.152344 100.113281 C 64.675781 99.808594 64.167969 99.558594 63.636719 99.363281 C 63.101562 99.164062 62.554688 99.027344 61.992188 98.945312 C 61.429688 98.863281 60.867188 98.839844 60.300781 98.875 C 59.734375 98.914062 59.175781 99.007812 58.628906 99.160156 C 58.082031 99.316406 57.558594 99.527344 57.058594 99.789062 C 56.554688 100.054688 56.085938 100.367188 55.648438 100.730469 C 55.210938 101.097656 54.816406 101.5 54.464844 101.945312 C 54.117188 102.394531 53.816406 102.871094 53.5625 103.382812 L 44.207031 123.328125 Z M 39.917969 113.800781 " fill-opacity="1" fill-rule="nonzero"/><path fill="#00bfa6" d="M 37.5625 97.421875 C 37.550781 97.421875 37.535156 97.421875 37.523438 97.417969 L 35.859375 96.84375 C 35.816406 96.828125 35.785156 96.800781 35.777344 96.753906 C 35.765625 96.710938 35.773438 96.671875 35.804688 96.636719 L 37.042969 95.289062 C 37.101562 95.226562 37.160156 95.222656 37.222656 95.28125 C 37.285156 95.339844 37.289062 95.398438 37.230469 95.460938 L 36.125 96.664062 L 37.605469 97.175781 C 37.671875 97.199219 37.703125 97.246094 37.6875 97.316406 C 37.675781 97.386719 37.636719 97.421875 37.5625 97.421875 Z M 37.5625 97.421875 " fill-opacity="1" fill-rule="nonzero"/><path fill="#00bfa6" d="M 39.84375 96.957031 C 39.785156 96.957031 39.746094 96.929688 39.726562 96.875 C 39.703125 96.824219 39.714844 96.777344 39.753906 96.738281 L 40.878906 95.648438 L 39.367188 95.027344 C 39.289062 94.996094 39.265625 94.9375 39.296875 94.859375 C 39.332031 94.78125 39.386719 94.757812 39.464844 94.789062 L 41.15625 95.488281 C 41.199219 95.503906 41.226562 95.535156 41.234375 95.582031 C 41.242188 95.625 41.230469 95.664062 41.195312 95.699219 L 39.933594 96.921875 C 39.90625 96.945312 39.878906 96.957031 39.84375 96.957031 Z M 39.84375 96.957031 " fill-opacity="1" fill-rule="nonzero"/><path fill="#00bfa6" d="M 37.914062 98.207031 C 37.898438 98.207031 37.886719 98.203125 37.875 98.199219 C 37.792969 98.175781 37.765625 98.121094 37.789062 98.039062 L 38.972656 94.203125 C 38.996094 94.121094 39.050781 94.09375 39.128906 94.117188 C 39.210938 94.144531 39.238281 94.195312 39.214844 94.277344 L 38.035156 98.117188 C 38.015625 98.175781 37.976562 98.207031 37.914062 98.207031 Z M 37.914062 98.207031 " fill-opacity="1" fill-rule="nonzero"/></svg>